<svg viewBox="0 0 155.17 101.69" xmlns="http://www.w3.org/2000/svg"><g fill="#fff" opacity=".1"><path d="m7.16 44.84c5.08 14.01 10.18 28.08 15.27 42.08.29.8.83 1.25 1.21 1 .11-.07.16-.1.27-.17.38-.25.45-1.08.16-1.87-5.03-13.88-10.08-27.82-15.11-41.69 2.85-1.04 4.27-1.56 7.12-2.59 5.28 14.61 10.57 29.28 15.85 43.89 1.27 3.26 1.77 8.58-.98 11.25-2.5 1.82-3.75 2.73-6.25 4.55-3.57 1.93-6.37-3.57-7.33-6.13-5.78-15.89-11.59-31.83-17.37-47.72 2.87-1.04 4.3-1.56 7.16-2.61z"/><path d="m18.78 40.61c3.86-1.4 7.72-2.81 11.58-4.21 3.53-.86 6.18 2.92 7.15 5.78 2.13 5.95 4.25 11.91 6.38 17.86 1.19 3.02 1.32 7.82-1.47 10.02-1.63.99-2.44 1.49-4.07 2.48 1.78 4.95 3.57 9.95 5.35 14.9-2.12 1.54-4.24 3.09-6.36 4.63-6.18-17.13-12.38-34.33-18.55-51.46zm15.93 21.79c.39-.21.59-.31.98-.52s.5-.95.25-1.67c-1.43-3.99-2.86-7.98-4.29-11.97-.26-.72-.79-1.15-1.2-.98s-.61.26-1.02.44c1.76 4.9 3.52 9.8 5.28 14.7z"/><path d="m41.48 32.34c2.82-1.02 4.22-1.54 7.04-2.56 3.26-.9 5.9 2.2 6.82 4.97.88 2.5 1.32 3.74 2.2 6.24-2.75 1.29-4.13 1.93-6.88 3.21-.53-1.49-.79-2.23-1.32-3.72-.23-.64-.73-1.01-1.14-.84-.11.05-.17.07-.29.12-.41.17-.55.83-.32 1.48.62 1.74.92 2.61 1.54 4.35.14.39.36.74.46.77 3.59 1.67 7.19 3.3 10.86 4.78.52.3.96.86 1.17 1.47 1.31 3.71 2.63 7.48 3.94 11.19 1 3 .67 6.84-1.84 9.03-2.5 1.82-3.75 2.73-6.25 4.55-3.1 2-5.87-1.94-6.67-4.46-.94-2.62-1.87-5.25-2.81-7.87 2.65-1.59 3.98-2.38 6.62-3.97.62 1.74.92 2.61 1.54 4.35.23.65.72.97 1.1.73.11-.07.16-.1.27-.17.38-.25.5-.95.27-1.6-.61-1.72-.93-2.63-1.54-4.35-.14-.38-.41-.77-.67-.84-3.51-1.28-6.98-2.68-10.41-4.16-.59-.33-1.09-.96-1.41-1.84-1.48-4.14-2.95-8.28-4.43-12.41-1.02-2.78-.99-6.98 2.12-8.44z"/><path d="m74.59 57.04c2.49-.91 3.74-1.36 6.23-2.27 1.11 3.04 2.22 6.07 3.33 9.11-4.56 1.66-9.11 3.32-13.67 4.98-4.9-13.85-9.85-27.84-14.76-41.69 2.87-1.04 4.3-1.56 7.16-2.61 3.88 10.79 7.82 21.7 11.7 32.48z"/><path d="m71.47 21.43c2.87-1.04 4.3-1.56 7.16-2.61 5.15 13.76 10.34 27.66 15.49 41.42-2.46.9-4.93 1.79-7.39 2.69-5.07-13.79-10.19-27.71-15.26-41.51z"/><path d="m81.55 17.76c3.86-1.4 7.72-2.81 11.58-4.21 3.51-.91 6.2 2.81 7.21 5.65 3.89 10.47 7.78 20.93 11.66 31.4 1 2.41 1.43 7.22-2.2 7.69-4.23.29-8.46.58-12.69.87-5.19-13.8-10.38-27.6-15.57-41.39zm10.36 5.93c3.24 8.67 6.48 17.34 9.72 26 .45-.06.67-.08 1.12-.14s.61-.62.37-1.26c-2.99-8-5.97-15.99-8.96-23.99-.24-.65-.77-1.06-1.2-.93-.42.13-.64.19-1.06.32z"/><path d="m117.7 57.75c-5.79-15.61-11.58-31.22-17.36-46.83 5.21-1.9 10.41-3.79 15.62-5.69 1.38 3.76 2.77 7.53 4.15 11.29-2.88.85-5.76 1.69-8.63 2.54 1.02 2.77 2.05 5.54 3.07 8.32 2.99-.72 4.49-1.09 7.48-1.81 1.37 3.74 2.75 7.48 4.12 11.21-3.05.54-4.58.81-7.63 1.35 1.02 2.77 2.05 5.55 3.07 8.32 3.03-.39 6.06-.78 9.09-1.17 1.38 3.76 2.77 7.53 4.15 11.29-5.71.39-11.41.78-17.12 1.17z"/><path d="m118.45 4.33c3.86-1.4 7.72-2.81 11.58-4.21 3.95-.96 6.8 4.32 7.77 7.34 1.25 3.44 2.5 6.87 3.75 10.31.94 2.33 2.97 7.66.04 9.4.1.26.14.39.24.66 3.49.11 5.41 5.31 6.29 8 2.35 6.46 4.7 12.92 7.05 19.38-3.12.21-4.68.32-7.8.53-2.37-6.49-4.74-12.98-7.11-19.47-.29-.8-.88-1.38-1.32-1.3-.12.02-.19.03-.31.05-.44.08-.56.77-.27 1.57 2.35 6.43 4.7 12.86 7.05 19.29-2.62.18-5.23.36-7.85.54-6.37-17.36-12.73-34.71-19.1-52.07zm15.65 17.37c.43-.11.54-.83.25-1.63-1-2.72-1.49-4.09-2.49-6.81-.29-.8-.87-1.34-1.29-1.21s-.64.19-1.06.32c1.17 3.2 2.34 6.4 3.51 9.61.43-.11.65-.16 1.08-.27z"/><path d="m54.75 87.49.83-.3.54 1.49 1.53-.56-.54-1.49.83-.3 1.37 3.76-.83.3-.55-1.51-1.53.56.55 1.51-.83.3z"/><path d="m60 85.55.76-.28 2.99 3.2-.87.31-.65-.72-1.59.58-.04.97-.84.31.23-4.37zm1.68 1.9-.94-1.04-.06 1.4z"/><path d="m63.77 87.85.28-.76c.44.16.86.2 1.29.05.34-.12.49-.33.41-.55-.08-.22-.24-.28-.93-.21-.83.08-1.39.05-1.66-.7-.25-.69.14-1.34.9-1.62.55-.2 1.08-.2 1.57-.03l-.2.78c-.42-.11-.8-.13-1.11-.01s-.43.32-.36.5c.09.26.28.28.99.21.84-.08 1.36.04 1.6.69.27.76-.15 1.38-.96 1.68-.57.21-1.22.22-1.81-.02z"/><path d="m66.19 83.33 2.84-1.03.27.74-2.01.73.28.76 1.77-.65.27.74-1.77.65.29.79 2.04-.74.27.74-2.86 1.04-1.37-3.76z"/><path d="m70.21 84.01c-.39-1.08.12-2.26 1.26-2.67.68-.25 1.15-.21 1.67-.02l-.29.82c-.38-.14-.69-.18-1.12-.02-.6.22-.89.93-.65 1.56.25.7.91 1.03 1.57.79.3-.11.54-.28.7-.51l-.2-.54-.83.3-.26-.71 1.63-.59.59 1.63c-.27.47-.7.93-1.39 1.18-1.17.43-2.28-.1-2.68-1.21z"/><path d="m75.07 80.07.76-.28 2.99 3.2-.87.31-.65-.72-1.59.58-.04.97-.84.31.23-4.37zm1.67 1.89-.94-1.04-.06 1.4z"/><path d="m77.1 79.36.89-.32 1.71 2.26-.09-2.86.71-.26 1.77 2.25-.15-2.83.87-.31.09 4.26-.72.26-1.74-2.15.05 2.77-.72.26-2.66-3.32z"/><path d="m84.05 76.8.76-.28 2.99 3.2-.86.31-.65-.72-1.59.58-.04.97-.84.31zm1.68 1.89-.94-1.04-.06 1.4z"/><path d="m88.94 77.19c-.39-1.08.14-2.26 1.3-2.69 1.16-.42 2.31.14 2.7 1.21.39 1.08-.14 2.26-1.3 2.69s-2.31-.14-2.7-1.21zm3.13-1.14c-.23-.66-.9-1.02-1.57-.78s-.94.94-.7 1.58c.23.66.9 1.02 1.57.78s.94-.94.7-1.58z"/><path d="m92.87 73.62 1.72-.63c.48-.17.9-.17 1.23-.02.29.13.51.39.64.74.22.62.03 1.12-.38 1.47l1.41 1.01-.97.35-1.24-.91-.65.24.44 1.2-.83.3-1.37-3.76zm2.33 1.22c.4-.15.56-.45.44-.76-.13-.37-.44-.46-.85-.31l-.82.3.39 1.08z"/><path d="m96.69 72.23.83-.3 1.37 3.76-.83.3z"/><path d="m98.87 73.58c-.39-1.08.12-2.26 1.26-2.67.68-.25 1.15-.21 1.67-.02l-.29.82c-.38-.14-.69-.18-1.12-.02-.6.22-.89.93-.65 1.56.25.7.91 1.03 1.57.79.3-.11.54-.28.7-.51l-.2-.54-.83.3-.26-.71 1.63-.59.59 1.63c-.27.47-.7.93-1.39 1.18-1.17.43-2.28-.1-2.68-1.21z"/><path d="m102.49 70.12.83-.3 1.37 3.76-.83.3z"/><path d="m104.15 69.51.76-.28 2.61 1.67-.84-2.32.82-.3 1.37 3.76-.7.26-2.69-1.73.87 2.39-.82.3-1.37-3.76z"/><path d="m109.57 67.51.76-.28 2.99 3.2-.87.31-.65-.72-1.59.58-.04.97-.84.31.23-4.37zm1.67 1.9-.94-1.04-.06 1.4z"/><path d="m112.42 66.5.83-.3 1.1 3.01 1.87-.68.27.75-2.7.98z"/><path d="m116.55 68.64.28-.76c.44.16.86.2 1.29.05.34-.12.49-.33.41-.55-.08-.22-.24-.28-.93-.21-.83.08-1.39.05-1.67-.7-.25-.69.14-1.34.9-1.62.55-.2 1.08-.2 1.57-.03l-.2.78c-.42-.11-.8-.13-1.11-.01s-.43.32-.36.5c.09.26.28.28.99.21.84-.08 1.36.04 1.6.69.27.76-.15 1.38-.96 1.68-.57.21-1.22.22-1.81-.02z"/></g></svg>