<?xml version="1.0" encoding="UTF-8"?>
<svg id="_レイヤー_2" data-name="レイヤー 2" xmlns="http://www.w3.org/2000/svg" viewBox="0 0 396 167.12">
  <defs>
    <style>
      .cls-1 {
        fill: #ec6c00;
      }

      .cls-2 {
        fill: #2d2d2d;
      }
    </style>
  </defs>
  <g id="_画像" data-name="画像">
    <g>
      <g>
        <path class="cls-1" d="M21.08,0c-.04,41.21-.09,82.59-.13,123.8,0,2.36.97,4.02,2.19,3.75.34-.08.51-.12.85-.2,1.22-.28,2.19-2.37,2.2-4.71.06-40.82.11-81.82.17-122.64h20.96c-.11,42.96-.22,86.1-.33,129.06.22,9.68-3.5,23.97-13.19,28.3-8.22,2.37-12.33,3.55-20.54,5.92-11.09,1.63-13.18-15.3-13.25-22.86V0h21.08Z"/>
        <path class="cls-1" d="M55.28,0h34.08c9.99,1.1,13.3,13.44,13.11,21.78-.11,17.48-.21,34.97-.32,52.45.23,8.96-3.95,21.56-13.3,24.64-5.17,1.04-7.75,1.56-12.92,2.6-.06,14.54-.13,29.25-.19,43.78-6.97,2.01-13.94,4.02-20.91,6.03.15-50.37.3-100.91.46-151.28ZM76.05,71.69c1.22-.17,1.83-.26,3.05-.43,1.22-.17,2.21-2,2.22-4.1.05-11.72.11-23.44.16-35.16,0-2.11-.96-3.73-2.19-3.67-1.22.07-1.84.1-3.06.17-.06,14.39-.12,28.79-.19,43.18Z"/>
        <path class="cls-1" d="M122.08,0h20.72c9.34.74,13.24,11.3,13.04,19.36-.08,7.32-.12,10.97-.19,18.29-8.36.74-12.55,1.11-20.91,1.85.04-4.36.06-6.55.09-10.91.02-1.88-.95-3.33-2.17-3.26-.34.02-.51.03-.86.05-1.22.07-2.22,1.65-2.23,3.55-.04,5.1-.06,7.65-.11,12.75,0,1.14.23,2.26.47,2.43,7.74,7.74,15.56,15.36,23.7,22.69,1.08,1.27,1.67,3.14,1.65,4.93-.11,10.88-.23,21.92-.34,32.8-.23,8.73-4.74,18.41-13.32,21.72-8.22,2.37-12.33,3.55-20.54,5.92-9.94,2.26-13.41-10.59-13.11-17.89.05-7.7.1-15.4.15-23.1,8.39-1.62,12.58-2.42,20.97-4.04-.04,5.1-.06,7.65-.11,12.75-.02,1.9.95,3.2,2.16,2.93.34-.08.51-.12.85-.2,1.22-.28,2.2-2.01,2.22-3.89.04-5.04.07-7.72.11-12.76,0-1.13-.34-2.38-.95-2.83-7.91-6.66-15.61-13.56-23.12-20.66-1.21-1.42-1.93-3.53-1.91-6.11.08-12.15.16-24.3.24-36.45-.03-8.18,4.03-19.07,13.49-19.91Z"/>
        <path class="cls-1" d="M184.77,95.48h18.35c.01,8.94.02,17.88.04,26.81h-40.23c.36-40.64.72-81.66,1.09-122.3h21.09c-.11,31.7-.21,63.78-.32,95.48Z"/>
        <path class="cls-1" d="M210.34,0h21.09c.36,40.64.72,81.66,1.08,122.3h-21.76c-.13-40.64-.27-81.66-.4-122.3Z"/>
        <path class="cls-1" d="M240.01,0h34.08c9.99.96,13.46,13.16,13.38,21.51.2,30.87.41,61.75.61,92.62.31,7.22-3.11,20.11-12.98,17.92-11.26-3.25-22.53-6.5-33.79-9.75-.43-40.77-.87-81.53-1.3-122.3ZM261.31,25.21c.22,25.59.45,51.18.67,76.78,1.22.28,1.83.42,3.04.7,1.22.28,2.18-1.02,2.16-2.93-.2-23.61-.39-47.22-.59-70.82-.02-1.9-1.01-3.48-2.23-3.55-1.22-.07-1.84-.1-3.06-.17Z"/>
        <path class="cls-1" d="M296.13,138.12c-.28-46.04-.56-92.08-.83-138.12h45.97c.03,11.09.07,22.18.1,33.27-8.28-.52-16.56-1.04-24.84-1.57.04,8.17.07,16.35.11,24.52,8.46.95,12.68,1.42,21.14,2.37.04,11.01.07,22.03.11,33.04-8.44-1.48-12.66-2.22-21.1-3.7.04,8.17.07,16.35.11,24.52,8.24,1.85,16.48,3.7,24.72,5.56.03,11.09.07,22.18.1,33.27-15.2-4.39-30.39-8.77-45.59-13.16Z"/>
        <path class="cls-1" d="M348.61,0h34.08c11.17,1.24,13.59,17.66,13.24,26.43v30.35c.24,6.95.47,22.7-8.79,24.45,0,.77,0,1.16,0,1.93,8.96,3.58,9.03,18.91,8.79,26.73v57.02c-8.31-2.4-12.47-3.6-20.79-6-.02-19.11-.04-38.22-.06-57.34,0-2.36-.98-4.42-2.2-4.64-.34-.06-.51-.09-.85-.15-1.22-.22-2.19,1.48-2.19,3.82.03,18.93.05,37.87.08,56.8-6.97-2.01-13.94-4.02-20.91-6.03-.13-51.13-.26-102.25-.39-153.38ZM372.83,59.93c1.22.13,2.2-1.65,2.19-4.01,0-8.02-.01-12.03-.02-20.06,0-2.36-.98-4.3-2.21-4.37-1.22-.07-1.84-.1-3.06-.17.01,9.43.03,18.86.04,28.28,1.22.13,1.83.2,3.06.33Z"/>
      </g>
      <g>
        <path class="cls-2" d="M104.39,155.86h2.43v4.38h4.49v-4.38h2.44v11.07h-2.44v-4.44h-4.49v4.44h-2.43v-11.07Z"/>
        <path class="cls-2" d="M119.89,155.79h2.25l4.74,11.15h-2.55l-1.01-2.48h-4.68l-1.01,2.48h-2.48l4.74-11.15ZM122.45,162.3l-1.47-3.59-1.47,3.59h2.94Z"/>
        <path class="cls-2" d="M127.51,165.32l1.44-1.72c1,.82,2.04,1.34,3.3,1.34,1,0,1.6-.4,1.6-1.04v-.03c0-.62-.38-.93-2.23-1.41-2.23-.57-3.67-1.19-3.67-3.38v-.03c0-2.01,1.61-3.34,3.87-3.34,1.61,0,2.99.51,4.11,1.41l-1.27,1.83c-.98-.68-1.94-1.09-2.88-1.09s-1.42.43-1.42.96v.03c0,.73.47.96,2.39,1.45,2.25.59,3.51,1.39,3.51,3.32v.03c0,2.2-1.68,3.43-4.06,3.43-1.68,0-3.37-.58-4.7-1.77Z"/>
        <path class="cls-2" d="M138.07,155.86h8.35v2.17h-5.93v2.25h5.22v2.17h-5.22v2.32h6.01v2.17h-8.43v-11.07Z"/>
        <path class="cls-2" d="M147.86,161.43v-.03c0-3.15,2.45-5.72,5.8-5.72,1.99,0,3.19.54,4.35,1.52l-1.53,1.85c-.85-.71-1.61-1.12-2.89-1.12-1.77,0-3.18,1.57-3.18,3.45v.03c0,2.02,1.39,3.51,3.35,3.51.89,0,1.68-.22,2.29-.66v-1.58h-2.45v-2.1h4.81v4.81c-1.14.96-2.7,1.76-4.73,1.76-3.45,0-5.82-2.42-5.82-5.69Z"/>
        <path class="cls-2" d="M164.23,155.79h2.25l4.74,11.15h-2.55l-1.01-2.48h-4.68l-1.01,2.48h-2.48l4.74-11.15ZM166.79,162.3l-1.47-3.59-1.47,3.59h2.94Z"/>
        <path class="cls-2" d="M170.17,155.86h2.61l2.29,7.49,2.48-7.53h2.09l2.48,7.53,2.29-7.49h2.55l-3.78,11.15h-2.12l-2.5-7.24-2.5,7.24h-2.12l-3.78-11.15Z"/>
        <path class="cls-2" d="M190.66,155.79h2.25l4.74,11.15h-2.55l-1.01-2.48h-4.68l-1.01,2.48h-2.48l4.74-11.15ZM193.23,162.3l-1.47-3.59-1.47,3.59h2.94Z"/>
        <path class="cls-2" d="M202.98,161.43v-.03c0-3.15,2.48-5.72,5.9-5.72s5.87,2.55,5.87,5.69v.03c0,3.15-2.48,5.72-5.9,5.72s-5.87-2.55-5.87-5.69ZM212.2,161.43v-.03c0-1.9-1.39-3.48-3.35-3.48s-3.32,1.55-3.32,3.45v.03c0,1.9,1.39,3.48,3.35,3.48s3.32-1.55,3.32-3.45Z"/>
        <path class="cls-2" d="M216.6,155.86h5.06c1.41,0,2.5.4,3.23,1.12.62.62.95,1.49.95,2.53v.03c0,1.79-.96,2.91-2.37,3.43l2.7,3.95h-2.85l-2.37-3.54h-1.91v3.54h-2.44v-11.07ZM221.5,161.24c1.19,0,1.87-.63,1.87-1.56v-.03c0-1.04-.73-1.58-1.91-1.58h-2.42v3.18h2.47Z"/>
        <path class="cls-2" d="M227.82,155.86h2.44v11.07h-2.44v-11.07Z"/>
        <path class="cls-2" d="M232.22,161.43v-.03c0-3.15,2.45-5.72,5.8-5.72,1.99,0,3.19.54,4.35,1.52l-1.53,1.85c-.85-.71-1.61-1.12-2.89-1.12-1.77,0-3.18,1.57-3.18,3.45v.03c0,2.02,1.39,3.51,3.35,3.51.89,0,1.68-.22,2.29-.66v-1.58h-2.45v-2.1h4.81v4.81c-1.14.96-2.7,1.76-4.73,1.76-3.45,0-5.82-2.42-5.82-5.69Z"/>
        <path class="cls-2" d="M244.9,155.86h2.44v11.07h-2.44v-11.07Z"/>
        <path class="cls-2" d="M249.78,155.86h2.25l5.19,6.82v-6.82h2.4v11.07h-2.07l-5.36-7.04v7.04h-2.4v-11.07Z"/>
        <path class="cls-2" d="M265.75,155.79h2.25l4.74,11.15h-2.55l-1.01-2.48h-4.68l-1.01,2.48h-2.48l4.74-11.15ZM268.32,162.3l-1.47-3.59-1.47,3.59h2.94Z"/>
        <path class="cls-2" d="M274.13,155.86h2.44v8.85h5.52v2.21h-7.95v-11.07Z"/>
        <path class="cls-2" d="M282.85,165.32l1.44-1.72c1,.82,2.04,1.34,3.3,1.34,1,0,1.6-.4,1.6-1.04v-.03c0-.62-.38-.93-2.23-1.41-2.23-.57-3.67-1.19-3.67-3.38v-.03c0-2.01,1.61-3.34,3.87-3.34,1.61,0,2.99.51,4.11,1.41l-1.26,1.83c-.98-.68-1.94-1.09-2.88-1.09s-1.42.43-1.42.96v.03c0,.73.47.96,2.39,1.45,2.25.59,3.51,1.39,3.51,3.32v.03c0,2.2-1.68,3.43-4.06,3.43-1.68,0-3.37-.58-4.7-1.77Z"/>
      </g>
    </g>
  </g>
</svg>