<?xml version="1.0" encoding="UTF-8"?>
<svg id="_レイヤー_2" data-name="レイヤー 2" xmlns="http://www.w3.org/2000/svg" viewBox="0 0 118.22 29.56">
  <defs>
    <style>
      .cls-1 {
        fill: #fff;
      }

      .cls-2 {
        fill: #cf1225;
      }
    </style>
  </defs>
  <g id="_画像" data-name="画像">
    <g>
      <path class="cls-2" d="M118.22,14.78c0,8.13-6.65,14.78-14.78,14.78H14.78C6.65,29.56,0,22.91,0,14.78h0C0,6.65,6.65,0,14.78,0h88.67c8.13,0,14.78,6.65,14.78,14.78h0Z"/>
      <path class="cls-1" d="M1.54,14.77C1.54,7.47,7.48,1.53,14.78,1.53h88.67c7.3,0,13.24,5.94,13.24,13.24s-5.94,13.24-13.24,13.24H14.78c-7.3,0-13.24-5.94-13.24-13.24ZM14.78,4.37c-5.74,0-10.4,4.67-10.4,10.4s4.67,10.4,10.4,10.4h88.67c5.74,0,10.4-4.67,10.4-10.4s-4.67-10.4-10.4-10.4H14.78Z"/>
      <g>
        <path class="cls-1" d="M37.71,15.5c-.61-.28-1.58-.97-1.26-2.48.28-1.32,1.18-2.31,2.6-2.84.76-.29,1.52-.34,2.24-.36h5.6l-.37,1.72h-4.68c-.31,0-.69.02-1.06.14-.63.2-1.03.59-1.14,1.12-.02.11-.03.21-.03.31,0,.43.22.73.67.91.3.12.7.19,1.12.19h1.13c.88,0,1.67.14,2.25.4,1,.44,1.43,1.36,1.19,2.51-.28,1.32-1.18,2.3-2.61,2.84-.78.3-1.56.35-2.23.37h-5.9l.37-1.72h5.01c.31,0,.69-.02,1.07-.14.63-.21,1.03-.6,1.14-1.12.03-.12.04-.23.04-.33,0-.42-.21-.72-.62-.89-.28-.12-.74-.19-1.17-.19h-1.18c-.8,0-1.55-.15-2.17-.43Z"/>
        <path class="cls-1" d="M105.31,9.81c.7.02,1.39.07,2.02.36h0c.96.43,1.45,1.16,1.45,2.13,0,.22-.03.45-.08.69l-1.56,7.34h-5.93c-.74-.02-1.52-.09-2.13-.37-1.11-.5-1.7-1.28-1.7-2.23,0-.17.02-.35.06-.53.33-1.57,1.65-2.28,2.41-2.56.74-.28,1.56-.43,2.37-.43h2.06l-.37,1.73h-1.05c-.5,0-.9.05-1.21.16-.55.19-.95.46-1.1,1.16-.02.09-.03.18-.03.26,0,.43.25.78.7.94.33.13.7.14,1.01.14h2.45s1.22-5.71,1.23-5.79c.13-.57-.08-.97-.61-1.17-.29-.11-.67-.11-1.04-.11h-4.41l.37-1.72h5.09Z"/>
        <path class="cls-1" d="M78.21,9.81c.7.02,1.39.07,2.02.36h0c.96.43,1.45,1.16,1.45,2.13,0,.22-.03.45-.08.69l-1.56,7.34h-5.93c-.74-.02-1.52-.09-2.13-.37-1.11-.5-1.7-1.28-1.7-2.23,0-.17.02-.35.06-.53.33-1.57,1.65-2.28,2.41-2.56.74-.28,1.56-.43,2.37-.43h2.06l-.37,1.73h-1.05c-.5,0-.9.05-1.21.16-.55.19-.95.46-1.1,1.16-.02.09-.03.18-.03.26,0,.43.25.78.7.94.33.13.7.14,1.01.14h2.45s1.22-5.71,1.23-5.79c.13-.57-.08-.97-.61-1.17-.29-.11-.67-.11-1.04-.11h-4.41l.37-1.72h5.09ZM80.28,10.06h0s0,0,0,0c0,0,0,0,0,0Z"/>
        <path class="cls-1" d="M31.78,9.81c.7.02,1.39.07,2.02.36h0c.96.43,1.45,1.16,1.45,2.13,0,.22-.03.45-.08.69l-1.56,7.34h-5.93c-.74-.02-1.52-.09-2.13-.37-1.11-.5-1.7-1.28-1.7-2.23,0-.17.02-.35.06-.53.33-1.57,1.65-2.28,2.41-2.56.74-.28,1.56-.43,2.37-.43h2.06c-.03.13-.35,1.64-.37,1.73h-1.05c-.5,0-.9.05-1.21.16-.55.19-.95.46-1.1,1.16-.02.09-.03.18-.03.26,0,.43.25.78.7.94.33.13.7.14,1.01.14h2.45s1.22-5.71,1.23-5.79c.13-.57-.08-.97-.61-1.17-.29-.11-.67-.11-1.04-.11h-4.41l.37-1.72h5.09ZM33.85,10.06s0,0,0,0h0s0,0,0,0Z"/>
        <path class="cls-1" d="M24.9,6.56l-2.93,13.77h-2.83s1.33-6.24,1.33-6.24h-5.02l-1.33,6.24h-2.83s2.93-13.77,2.93-13.77h2.83s-1.23,5.81-1.23,5.81h5.02l1.23-5.81h2.83Z"/>
        <path class="cls-1" d="M60.15,19.45c-.69-.52-1.41-1.44-1.41-3.05,0-.41.05-.87.15-1.37.45-2.14,1.67-3.67,3.6-4.56.96-.45,1.91-.67,2.82-.67h5.38l-2.25,10.56c-.29,1.32-1.19,2.31-2.6,2.84-.76.3-1.47.34-2.18.36h-5.07l.37-1.72h4.43c.35,0,.75,0,1.09-.11.6-.19.97-.59,1.09-1.15.02-.07,1.05-4.92,1.91-8.99l.02-.07h-2.33c-.43,0-.9.16-1.41.46-.97.59-1.62,1.6-1.91,3.01-.38,1.8.26,2.71.46,2.95.38.43.86.65,1.45.65h.91l-.37,1.72h-1.34c-1.08,0-2.03-.3-2.81-.88Z"/>
        <path class="cls-1" d="M48.62,19.5c-1.27-.92-1.71-2.36-1.3-4.29.47-2.22,1.69-3.81,3.63-4.71.96-.46,1.91-.69,2.81-.69h.96c.84,0,1.53.13,2.13.4h0c.82.36,1.26,1.04,1.26,1.9,0,.19-.02.4-.07.61l-.68,3.21h-5.86l.37-1.73h2.74l.29-1.38c.02-.1.03-.21.03-.3,0-.23-.06-.43-.19-.59-.22-.27-.6-.4-1.13-.4-.66,0-1.27.24-1.83.73-.55.48-.97,1.11-1.24,1.87,0,.02-.18.51-.25.85-.07.34-.12.98-.12,1.01.02.84.22,1.49.61,1.95.36.43.85.66,1.44.67h4.56l-.37,1.72h-4.99c-1.09,0-2.04-.28-2.81-.83ZM56.91,10.1s0,0,0,0h0Z"/>
        <path class="cls-1" d="M97.82,9.81l-2.24,10.52h-8.71c-1.09,0-2.04-.29-2.81-.86-.91-.67-1.39-1.63-1.43-2.86,0-.06,0-.12,0-.19,0-.41.05-.86.15-1.33l1.12-5.29h2.82l-1.11,5.19c-.08.4-.12.77-.12,1.12,0,.05,0,.1,0,.15.05,1.32.73,2.1,2.03,2.3h.06s1.87-8.77,1.87-8.77h2.83l-1.87,8.79h2.71l1.87-8.79h2.83Z"/>
      </g>
    </g>
  </g>
</svg>