<?xml version="1.0" encoding="UTF-8"?>
<svg id="_レイヤー_2" data-name="レイヤー 2" xmlns="http://www.w3.org/2000/svg" viewBox="0 0 59.36 81">
  <defs>
    <style>
      .cls-1 {
        fill: #c8c9ca;
      }

      .cls-2 {
        fill: #2d2d2d;
      }

      .cls-3 {
        fill: #e50012;
      }
    </style>
  </defs>
  <g id="_画像" data-name="画像">
    <g>
      <g>
        <path class="cls-2" d="M33.39,1.24v43.47s.85-.19.85-.19c.19-.04,4.59-1,6.75,3.11.52.98.5,2.88-.04,4.32-.28.76-1.03,1.27-1.85,1.27h-14.44c-.67,0-1.31-.2-1.81-.58-1.25-.93-1.11-2.16-1.1-2.21v-.05s0-49.13,0-49.13h-1.38v49.05c-.04.36-.11,2.14,1.65,3.45.74.55,1.67.85,2.63.85h14.44c1.4,0,2.66-.87,3.14-2.16.58-1.56.76-3.94-.03-5.45-2.04-3.87-5.77-4.06-7.44-3.92V1.24h-1.38Z"/>
        <path class="cls-1" d="M21.75,1.24v49.18s-.15,1.28,1.09,2.21c.5.37,1.14.58,1.81.58h14.44c.82,0,1.57-.51,1.85-1.27.54-1.44.55-3.34.04-4.32-2.16-4.11-6.56-3.15-6.75-3.11l-.84.19v-.86s0-42.6,0-42.6h-11.64Z"/>
      </g>
      <g>
        <path class="cls-2" d="M24.82,67.36c.04-.42.07-.92.07-1.6v-.48h-3.21v.48c0,2.1,0,3.25-3.68,5.88l-.79.56,1.91,2.49.73-.51c2.04-1.43,3.13-2.46,3.9-3.71h2.52c-.49,2.29-2.61,4.43-7.15,7.29l-.83.52,1.81,2.59.75-.47c6.29-3.92,8.74-6.99,8.74-10.94v-2.08h-4.77Z"/>
        <path class="cls-2" d="M37.67,65.27l-.08,3.1c0,3.85-.93,5.14-6.64,9.26l-.76.55,1.88,2.61.76-.55c6.21-4.47,8.02-6.57,8.02-11.87l.08-3.1h-3.26Z"/>
        <g>
          <rect class="cls-2" x="46.19" y="65.27" width="3.13" height="7.8"/>
          <path class="cls-2" d="M52.46,65.27v5.29c0,4.54-.48,4.91-3.62,7.31l-.73.56,1.89,2.57.75-.57c3.9-2.93,4.89-4.29,4.89-9.87v-5.29h-3.2Z"/>
        </g>
        <g>
          <path d="M4.46,68.4h9.53v-3.13H4.54l-.07,2.8c0,.11,0,.22,0,.32Z"/>
          <path d="M10.75,72.53c-.22,1.75-1.2,2.73-4.79,5.39l-.77.57,1.95,2.52.74-.54c4.44-3.29,6.12-4.91,6.12-8.88v-2.11H4.41c-.09,1.16-.32,2.15-.71,3.06h7.05Z"/>
        </g>
      </g>
      <path class="cls-3" d="M40.53,35.14c.07-.01.13-.03.19-.04-.06.01-.13.03-.19.04Z"/>
      <path class="cls-3" d="M41.08,35.01c.05-.01.11-.03.16-.04-.05.01-.11.03-.16.04Z"/>
      <path class="cls-3" d="M41.62,34.85s.06-.02.09-.03c-.03,0-.06.02-.09.03Z"/>
      <path class="cls-3" d="M39.96,35.23c.07-.01.14-.02.21-.03-.07.01-.14.02-.21.03Z"/>
      <path class="cls-3" d="M39.35,35.3c.07,0,.13-.01.2-.02-.07,0-.13.02-.2.02Z"/>
      <path class="cls-3" d="M42.17,34.65s.03-.01.05-.02c-.02,0-.03.01-.05.02Z"/>
      <path class="cls-3" d="M37.86,35.34c.16.01.32.02.49.02-.17,0-.33,0-.49-.02Z"/>
      <path class="cls-3" d="M42.58,34.46s.08-.04.11-.06c-.04.02-.08.04-.11.06Z"/>
      <path class="cls-3" d="M39.55,35.28c.14-.02.28-.03.41-.05-.13.02-.27.04-.41.05Z"/>
      <path class="cls-3" d="M41.71,34.83c.16-.05.31-.11.45-.17-.15.06-.3.12-.45.17Z"/>
      <path class="cls-3" d="M40.17,35.2c.12-.02.24-.04.36-.06-.12.02-.24.04-.36.06Z"/>
      <path class="cls-3" d="M38.7,35.36c.23-.01.44-.03.65-.05-.21.02-.43.04-.65.05Z"/>
      <path class="cls-3" d="M42.21,34.63c.13-.05.25-.11.37-.17-.12.06-.24.12-.37.17Z"/>
      <path class="cls-3" d="M41.24,34.97c.13-.04.26-.08.39-.12-.13.04-.25.08-.39.12Z"/>
      <path class="cls-3" d="M42.7,34.4c.1-.05.19-.1.28-.16-.09.05-.19.11-.28.16Z"/>
      <path class="cls-3" d="M40.73,35.1c.12-.03.23-.05.35-.08-.11.03-.23.06-.35.08Z"/>
      <g>
        <path class="cls-3" d="M53.33,1.63c-.72-.25-1.5-.39-2.31-.39h-4.1l-1.47,5.5c.82.1,1.63.32,2.45.65,1.5.61,2.52,1.51,3.21,2.54l2.22-8.3Z"/>
        <path class="cls-3" d="M42.98,34.24c-.09.05-.19.11-.28.16-.04.02-.08.04-.11.06-.12.06-.24.12-.37.17-.02,0-.03.01-.05.02-.15.06-.3.12-.45.17-.03,0-.06.02-.09.03-.13.04-.25.08-.39.12-.05.01-.11.03-.16.04-.11.03-.23.06-.35.08-.06.01-.13.03-.19.04-.12.02-.24.04-.36.06-.07.01-.14.02-.21.03-.13.02-.27.04-.41.05-.07,0-.13.02-.2.02-.21.02-.43.04-.65.05-.12,0-.24.01-.35.01-.17,0-.33,0-.49-.02-3.16-.27-4.95-3.09-5.03-3.22l-1.04-1.54h-13.57l-1.75,6.54h20.89l-1.58,5.91c1.64.05,4.04.58,5.74,2.86l3.6-13.51c-.7.78-1.37,1.39-2.15,1.86Z"/>
      </g>
      <g>
        <path class="cls-1" d="M33.99,31.37s1.78,2.78,4.63,2.61c3.2-.19,4.26-1.14,5.63-2.68,2.49-2.81,4.45-6.93,6.16-12.96,1.38-4.88.31-8.31-3.02-9.67-2.14-.87-5.62-1.51-11.03,3.07l-.61.52L28.91,1.24h-15.27l20.34,30.13Z"/>
        <path class="cls-2" d="M35.67,28.42c-.06,0-.13,0-.19-.03-.37-.1-.58-.49-.47-.85.8-2.8,2.93-9.76,5.54-13.87,1.44-2.26,3.32-3.22,4.64-3.63.36-.11.75.09.86.45.11.36-.09.75-.45.86-1.6.5-2.91,1.53-3.89,3.06-2.59,4.07-4.77,11.36-5.38,13.5-.09.3-.36.5-.66.5Z"/>
        <text/>
      </g>
      <path class="cls-3" d="M18.21,30.58L26.04,1.24h-6.51L4.64,57.08c1.08.66,2.34,1.04,3.7,1.04h29.93l.94-3.53s-.07,0-.1,0h-14.44s-.03,0-.04,0h-12.8l4.66-17.47,1.75-6.54Z"/>
      <path class="cls-2" d="M51.02,59.36H8.33c-4.6,0-8.33-3.74-8.33-8.33V8.33C0,3.74,3.74,0,8.33,0h42.69c4.6,0,8.33,3.74,8.33,8.33v42.69c0,4.6-3.74,8.33-8.33,8.33ZM8.33,1.24c-3.91,0-7.09,3.18-7.09,7.09v42.69c0,3.91,3.18,7.09,7.09,7.09h42.69c3.91,0,7.09-3.18,7.09-7.09V8.33c0-3.91-3.18-7.09-7.09-7.09H8.33Z"/>
    </g>
  </g>
</svg>