<?xml version="1.0" encoding="UTF-8"?>
<svg id="_レイヤー_2" data-name="レイヤー_2" xmlns="http://www.w3.org/2000/svg" viewBox="0 0 58.36 79.64">
  <defs>
    <style>
      .cls-1 {
        fill: #c8c9ca;
      }

      .cls-2 {
        fill: #2d2d2d;
      }

      .cls-3 {
        fill: #e50012;
      }
    </style>
  </defs>
  <g id="_画像" data-name="画像">
    <g>
      <g>
        <path class="cls-2" d="M32.83,1.22v42.73s.83-.19.83-.19c.18-.04,4.51-.98,6.64,3.06.51.97.49,2.83-.04,4.25-.28.75-1.01,1.25-1.82,1.25h-14.2c-.66,0-1.29-.2-1.78-.57-1.23-.91-1.09-2.13-1.08-2.17v-.05s0-48.31,0-48.31h-1.36v48.22c-.03.36-.11,2.1,1.62,3.39.72.54,1.64.84,2.59.84h14.2c1.37,0,2.61-.86,3.09-2.13.57-1.54.75-3.87-.03-5.35-2-3.81-5.67-3.99-7.31-3.86V1.22h-1.36Z"/>
        <path class="cls-1" d="M21.39,1.22v48.36s-.15,1.26,1.08,2.17c.49.37,1.12.57,1.78.57h14.2c.81,0,1.54-.5,1.82-1.25.53-1.42.54-3.28.04-4.25-2.12-4.04-6.45-3.1-6.64-3.06l-.83.19v-.85s0-41.88,0-41.88h-11.44Z"/>
      </g>
      <g>
        <path class="cls-2" d="M24.41,66.22c.04-.41.06-.91.06-1.58v-.47h-3.16v.47c0,2.06,0,3.2-3.61,5.78l-.77.55,1.87,2.44.72-.51c2-1.41,3.07-2.42,3.84-3.65h2.48c-.48,2.26-2.56,4.35-7.03,7.16l-.82.51,1.78,2.55.74-.46c6.19-3.85,8.6-6.87,8.6-10.76v-2.04h-4.69Z"/>
        <path class="cls-2" d="M37.03,64.17l-.08,3.05c0,3.78-.92,5.06-6.53,9.1l-.75.54,1.85,2.56.74-.54c6.11-4.39,7.88-6.46,7.88-11.67l.08-3.05h-3.21Z"/>
        <g>
          <rect class="cls-2" x="45.42" y="64.17" width="3.07" height="7.67"/>
          <path class="cls-2" d="M51.58,64.17v5.2c0,4.46-.47,4.83-3.56,7.19l-.72.55,1.86,2.53.74-.56c3.84-2.88,4.81-4.21,4.81-9.71v-5.2h-3.14Z"/>
        </g>
        <g>
          <path d="M4.39,67.25h9.37v-3.07H4.46l-.07,2.75c0,.11,0,.21,0,.32Z"/>
          <path d="M10.57,71.31c-.22,1.72-1.18,2.69-4.71,5.3l-.75.56,1.92,2.47.72-.53c4.37-3.24,6.02-4.83,6.02-8.73v-2.07H4.34c-.09,1.14-.31,2.11-.7,3.01h6.93Z"/>
        </g>
      </g>
      <path class="cls-3" d="M39.85,34.54c.06-.01.13-.03.19-.04-.06.01-.13.03-.19.04Z"/>
      <path class="cls-3" d="M40.39,34.42c.05-.01.11-.03.16-.04-.05.01-.11.03-.16.04Z"/>
      <path class="cls-3" d="M40.92,34.27s.06-.02.09-.03c-.03,0-.06.02-.09.03Z"/>
      <path class="cls-3" d="M39.29,34.64c.07,0,.14-.02.2-.03-.07.01-.14.02-.2.03Z"/>
      <path class="cls-3" d="M38.69,34.71c.07,0,.13-.01.19-.02-.06,0-.13.02-.19.02Z"/>
      <path class="cls-3" d="M41.46,34.07s.03-.01.05-.02c-.02,0-.03.01-.05.02Z"/>
      <path class="cls-3" d="M37.22,34.75c.16.01.32.02.48.02-.16,0-.32,0-.48-.02Z"/>
      <path class="cls-3" d="M41.86,33.88s.08-.04.11-.06c-.04.02-.07.04-.11.06Z"/>
      <path class="cls-3" d="M38.88,34.69c.14-.02.28-.03.41-.05-.13.02-.27.04-.41.05Z"/>
      <path class="cls-3" d="M41.01,34.24c.15-.05.3-.11.45-.17-.14.06-.29.12-.45.17Z"/>
      <path class="cls-3" d="M39.5,34.61c.12-.02.24-.04.36-.06-.12.02-.23.04-.36.06Z"/>
      <path class="cls-3" d="M38.05,34.76c.22-.01.44-.03.64-.05-.21.02-.42.04-.64.05Z"/>
      <path class="cls-3" d="M41.5,34.05c.12-.05.25-.11.36-.17-.12.06-.24.12-.36.17Z"/>
      <path class="cls-3" d="M40.55,34.38c.13-.04.26-.07.38-.12-.12.04-.25.08-.38.12Z"/>
      <path class="cls-3" d="M41.98,33.82c.09-.05.19-.1.28-.16-.09.05-.18.11-.28.16Z"/>
      <path class="cls-3" d="M40.04,34.51c.12-.03.23-.05.34-.08-.11.03-.23.06-.34.08Z"/>
      <g>
        <path class="cls-3" d="M52.43,1.6c-.71-.25-1.47-.38-2.27-.38h-4.03l-1.44,5.41c.81.1,1.61.31,2.41.64,1.47.6,2.48,1.48,3.15,2.5l2.18-8.16Z"/>
        <path class="cls-3" d="M42.25,33.66c-.09.05-.18.11-.28.16-.04.02-.07.04-.11.06-.12.06-.24.12-.36.17-.02,0-.03.01-.05.02-.14.06-.29.12-.45.17-.03,0-.06.02-.09.03-.12.04-.25.08-.38.12-.05.01-.11.03-.16.04-.11.03-.23.06-.34.08-.06.01-.13.03-.19.04-.12.02-.23.04-.36.06-.07.01-.14.02-.2.03-.13.02-.27.04-.41.05-.06,0-.13.02-.19.02-.21.02-.42.04-.64.05-.12,0-.23.01-.35.01-.16,0-.32,0-.48-.02-3.11-.27-4.87-3.04-4.94-3.17l-1.03-1.52h-13.35l-1.72,6.43h20.54l-1.55,5.81c1.61.05,3.97.57,5.65,2.81l3.54-13.28c-.69.77-1.35,1.37-2.11,1.83Z"/>
      </g>
      <g>
        <path class="cls-1" d="M33.41,30.85s1.75,2.73,4.55,2.56c3.15-.19,4.19-1.12,5.53-2.64,2.45-2.76,4.37-6.81,6.05-12.74,1.36-4.79.31-8.17-2.97-9.51-2.11-.86-5.52-1.48-10.84,3.01l-.6.51L28.43,1.22h-15.02l20,29.63Z"/>
        <path class="cls-2" d="M35.07,27.94c-.06,0-.12,0-.19-.03-.36-.1-.57-.48-.47-.84.78-2.75,2.88-9.59,5.45-13.63,1.41-2.22,3.26-3.17,4.56-3.57.36-.11.74.09.85.45.11.36-.09.74-.45.85-1.58.49-2.86,1.5-3.82,3.01-2.54,4-4.69,11.17-5.29,13.28-.08.3-.36.49-.65.49Z"/>
        <path class="cls-2" d="M47.1,7.27c-3.69-1.51-7.4-.64-11.62,2.74L30.02,1.22h-1.59l6.72,10.82.6-.51c5.32-4.5,8.74-3.87,10.84-3.01,3.27,1.34,4.33,4.71,2.97,9.51-1.68,5.93-3.61,9.98-6.05,12.74-1.34,1.51-2.39,2.45-5.53,2.64-2.81.17-4.52-2.52-4.55-2.56L13.41,1.22h-1.64l20.5,30.36c.08.13,2.02,3.19,5.43,3.19.11,0,.23,0,.35-.01,3.35-.2,4.75-1.16,6.47-3.09,2.59-2.92,4.6-7.14,6.34-13.27.73-2.59,1.84-8.85-3.76-11.13Z"/>
      </g>
      <path class="cls-3" d="M17.91,30.06L25.6,1.22h-6.4L4.56,56.12c1.06.65,2.3,1.02,3.63,1.02h29.42l.93-3.47s-.07,0-.1,0h-14.2s-.03,0-.04,0h-12.59l4.58-17.17,1.72-6.43Z"/>
      <path class="cls-2" d="M50.16,58.36H8.19c-4.52,0-8.19-3.68-8.19-8.19V8.19C0,3.68,3.68,0,8.19,0h41.97c4.52,0,8.19,3.68,8.19,8.19v41.97c0,4.52-3.68,8.19-8.19,8.19ZM8.19,1.22c-3.85,0-6.97,3.13-6.97,6.97v41.97c0,3.85,3.13,6.97,6.97,6.97h41.97c3.85,0,6.97-3.13,6.97-6.97V8.19c0-3.85-3.13-6.97-6.97-6.97H8.19Z"/>
    </g>
  </g>
</svg>