<?xml version="1.0" encoding="UTF-8"?>
<svg id="_レイヤー_2" data-name="レイヤー 2" xmlns="http://www.w3.org/2000/svg" xmlns:xlink="http://www.w3.org/1999/xlink" viewBox="0 0 78.85 79.79">
  <defs>
    <style>
      .cls-1, .cls-2 {
        fill: none;
      }

      .cls-3 {
        clip-path: url(#clippath-1);
      }

      .cls-4 {
        clip-path: url(#clippath-3);
      }

      .cls-5 {
        clip-path: url(#clippath-2);
      }

      .cls-6 {
        fill: #fff;
      }

      .cls-2 {
        stroke: #2d2d2d;
        stroke-width: 3.79px;
      }

      .cls-7 {
        fill: #2d2d2d;
      }

      .cls-8 {
        fill: #e50012;
      }

      .cls-9 {
        clip-path: url(#clippath);
      }
    </style>
    <clipPath id="clippath">
      <rect class="cls-1" width="78.85" height="79.79"/>
    </clipPath>
    <clipPath id="clippath-1">
      <rect class="cls-1" width="78.85" height="79.79"/>
    </clipPath>
    <clipPath id="clippath-2">
      <rect class="cls-1" width="78.85" height="79.79"/>
    </clipPath>
    <clipPath id="clippath-3">
      <rect class="cls-1" width="78.85" height="79.79"/>
    </clipPath>
  </defs>
  <g id="_画像" data-name="画像">
    <g>
      <g class="cls-9">
        <path class="cls-6" d="M70.01,35.95c0,18.81-15.25,34.06-34.06,34.06S1.9,54.76,1.9,35.95,17.14,1.9,35.95,1.9s34.06,15.25,34.06,34.06"/>
        <path class="cls-2" d="M70.01,35.95c0,18.81-15.25,34.06-34.06,34.06S1.9,54.76,1.9,35.95,17.14,1.9,35.95,1.9s34.06,15.25,34.06,34.06Z"/>
      </g>
      <path class="cls-8" d="M30.47,23.86v11.32l6.65,10.43-5.14,5-7.7-12.35v-14.39h6.18ZM19.75,23.86v14.39l-7.16,12.4-5.53-4.65,5.96-9.54v-12.6h6.73Z"/>
      <polygon class="cls-7" points="55.73 22.91 57.48 20.97 63.12 24.55 59.22 29.11 55.06 29.11 55.06 31.87 65.18 31.87 65.18 37.77 55.06 37.77 55.06 44.7 43.28 50.65 39.93 44.83 48.41 40.51 48.41 37.77 37.18 37.77 37.18 31.87 48.41 31.87 48.41 29.11 39.27 29.11 39.27 22.91 55.73 22.91"/>
      <g class="cls-3">
        <path class="cls-8" d="M78.85,66.04c0,7.35-5.96,13.3-13.31,13.3s-13.3-5.96-13.3-13.3,5.96-13.31,13.3-13.31,13.31,5.96,13.31,13.31"/>
        <path class="cls-6" d="M70.56,60.78v4.7c0,.17-.01.35-.04.54-.02.19-.1.34-.24.47-.14.12-.29.2-.48.24-.18.03-.36.05-.53.05h-1.67l-.14-1.62h1c.07,0,.14-.01.21-.03.07-.02.11-.06.13-.13.02-.07.02-.14.02-.2v-4.01h1.74ZM68.4,64.8h-1.73v-3.66h1.73v3.66ZM63.67,62.57h-.7v.46h.7v-.46ZM66.07,60.95v1.62h-.61v.46h.8v1.62h-.8v1.86h1v.62h3.85v1.65h-3.85v.58h4.42v1.79h-10.64v-1.79h4.2v-.58h-3.73v-1.65h3.73v-.33h-.77v-2.15h-.72c-.03.24-.08.48-.14.72-.18.58-.51,1.05-.98,1.43-.07.07-.15.12-.23.18l-1.32-1.34c.35-.25.61-.58.76-.98h-.88v-1.62h1.02v-.46h-.74v-1.62h5.63Z"/>
      </g>
      <polygon class="cls-7" points="21.29 75.15 21.29 76.75 19.17 76.75 19.17 75.15 18.07 75.15 18.07 79.69 19.17 79.69 19.17 77.8 21.29 77.8 21.29 79.69 22.39 79.69 22.39 75.15 21.29 75.15"/>
      <path class="cls-7" d="M26.01,75.99l.06-.28.06.28.56,1.72h-1.23l.56-1.72ZM25.19,75.15l-1.54,4.54h1.15l.3-.92h1.92l.3.92h1.15l-1.54-4.54h-1.75Z"/>
      <g class="cls-5">
        <path class="cls-7" d="M32.35,76.47c-.08-.17-.2-.28-.37-.34-.17-.05-.35-.08-.52-.08-.07,0-.14,0-.2,0-.07,0-.13.02-.2.05-.07.02-.12.06-.17.11-.05.05-.07.11-.07.18,0,.07.03.14.08.19.06.05.12.09.19.12.2.07.41.12.61.17.21.05.41.1.62.16.2.06.39.15.57.27.18.12.32.27.42.46.1.19.15.4.15.61s-.06.44-.17.64c-.11.2-.27.36-.46.48-.19.12-.4.2-.63.24-.23.04-.45.06-.66.06-.23,0-.45-.02-.67-.07-.22-.05-.43-.13-.62-.25-.2-.12-.35-.27-.47-.47-.12-.19-.2-.4-.23-.63-.01-.06-.02-.12-.02-.18l1.13-.11c.01.14.07.27.15.37.09.11.2.18.33.22.13.04.27.06.4.06.07,0,.15,0,.23-.02.08-.01.17-.03.24-.06.08-.03.14-.07.2-.13.06-.06.08-.14.08-.22,0-.05-.01-.11-.04-.16-.03-.05-.06-.09-.11-.11-.05-.03-.1-.05-.15-.07-.2-.07-.39-.12-.6-.16-.2-.04-.4-.09-.6-.14-.2-.05-.39-.12-.58-.22-.19-.1-.34-.24-.45-.42-.11-.18-.17-.38-.17-.59,0-.22.06-.43.17-.62.11-.19.26-.35.45-.47.19-.12.38-.2.6-.25.21-.05.43-.07.65-.07s.43.02.64.06c.21.04.42.11.61.21s.36.24.48.42c.13.18.21.38.25.59l-1.11.13Z"/>
      </g>
      <polygon class="cls-7" points="38 75.15 38 76.75 35.88 76.75 35.88 75.15 34.78 75.15 34.78 79.69 35.88 79.69 35.88 77.8 38 77.8 38 79.69 39.1 79.69 39.1 75.15 38 75.15"/>
      <rect class="cls-7" x="40.62" y="75.15" width="1.13" height="4.54"/>
      <g class="cls-4">
        <path class="cls-7" d="M47.46,76.91v2.31c-.28.19-.58.34-.91.43-.33.09-.66.14-1,.14-.18,0-.36-.01-.54-.04s-.36-.07-.53-.13-.33-.15-.48-.25c-.15-.1-.28-.23-.4-.37-.12-.14-.21-.3-.28-.47-.07-.17-.12-.35-.16-.53-.03-.18-.05-.36-.05-.54,0-.21.02-.42.07-.62.05-.2.11-.4.21-.59.09-.19.21-.36.35-.51.14-.16.3-.29.48-.39.18-.11.37-.18.58-.23.2-.05.41-.07.62-.07.25,0,.49.03.73.09.24.06.46.15.67.29.2.14.38.3.54.5l-.86.71c-.12-.16-.27-.3-.44-.4-.17-.11-.36-.16-.57-.16-.14,0-.27.02-.4.06-.13.04-.25.1-.36.19-.11.09-.2.19-.27.3-.07.12-.12.24-.14.38-.03.13-.04.27-.04.41,0,.15.01.29.04.44.02.14.07.28.15.41.07.13.17.24.28.33.12.09.24.16.38.2.14.04.28.06.43.06.29,0,.55-.08.79-.24v-.62h-.84v-1.07h1.93Z"/>
        <path class="cls-7" d="M51.06,76.1c-.14,0-.28.02-.41.06-.13.04-.26.1-.37.18-.11.08-.21.18-.28.3-.08.12-.14.24-.17.38s-.06.27-.06.41.02.27.06.41c.04.13.09.26.17.37.08.12.17.22.28.3.11.08.24.14.37.18.13.04.27.06.41.06s.28-.02.41-.06c.13-.04.26-.1.37-.18.11-.08.21-.18.28-.3.08-.11.14-.24.17-.37.04-.14.06-.27.06-.41s-.02-.27-.06-.41c-.04-.14-.1-.26-.17-.38-.08-.12-.17-.21-.28-.3-.11-.08-.24-.14-.37-.18-.13-.04-.27-.06-.41-.06M51.06,75.05c.21,0,.41.02.62.07.2.05.4.12.58.22.18.1.35.22.5.37.15.15.27.32.36.5.09.19.16.38.21.59.04.2.07.41.07.62s-.02.41-.07.62c-.04.2-.11.4-.21.59-.09.19-.22.35-.36.5-.15.15-.31.27-.5.37-.18.1-.38.17-.58.22-.21.05-.41.07-.62.07s-.41-.02-.62-.07c-.2-.05-.4-.12-.58-.22-.19-.1-.35-.22-.5-.37-.15-.15-.27-.32-.36-.5-.09-.19-.16-.38-.21-.59-.04-.2-.07-.41-.07-.62s.02-.42.07-.62c.04-.21.11-.4.21-.59.09-.18.22-.35.36-.5.15-.15.31-.27.5-.37.18-.1.38-.17.58-.22.2-.05.41-.07.62-.07"/>
      </g>
    </g>
  </g>
</svg>