<?xml version="1.0" encoding="UTF-8"?>
<svg id="_レイヤー_2" data-name="レイヤー 2" xmlns="http://www.w3.org/2000/svg" viewBox="0 0 79.64 79.46">
  <defs>
    <style>
      .cls-1 {
        fill: #fff;
      }

      .cls-2 {
        fill: none;
        stroke: #2d2d2d;
        stroke-width: 3.83px;
      }

      .cls-3 {
        fill: #2d2d2d;
      }

      .cls-4 {
        fill: #e50012;
      }
    </style>
  </defs>
  <g id="_画像" data-name="画像">
    <g>
      <path class="cls-1" d="M71.79,35.82c0,18.72-15.64,33.9-34.94,33.9S1.92,54.54,1.92,35.82,17.56,1.92,36.85,1.92s34.94,15.18,34.94,33.9"/>
      <path class="cls-2" d="M71.79,35.82c0,18.72-15.64,33.9-34.94,33.9S1.92,54.54,1.92,35.82,17.56,1.92,36.85,1.92s34.94,15.18,34.94,33.9Z"/>
      <polygon class="cls-4" points="30.88 22.25 30.88 31.86 13.25 49.66 7.94 44.71 23.98 29 23.98 22.25 30.88 22.25"/>
      <path class="cls-3" d="M63.58,24.19l-2.88,2.8-2.91-2.8,2.91-2.83,2.88,2.83ZM57.75,24.19l-2.91,2.8-2.92-2.8,2.92-2.83,2.91,2.83ZM61.86,27.64l.59,6.47-19.95,1.29v5.17l1.99,1.86h17.73v6.84h-21.77l-4.79-5.17v-21.1h6.83v6l19.36-1.36Z"/>
      <path class="cls-4" d="M79.64,65.77c0,7.31-6.11,13.24-13.65,13.24s-13.65-5.93-13.65-13.24,6.11-13.24,13.65-13.24,13.65,5.93,13.65,13.24"/>
      <path class="cls-1" d="M71.13,60.53v4.68c0,.17-.01.35-.04.53-.02.19-.11.34-.25.46-.14.12-.3.2-.49.23-.19.03-.37.05-.55.05h-1.71l-.15-1.61h1.02c.07,0,.14,0,.21-.03.07-.02.12-.06.13-.13.02-.07.03-.14.03-.2v-3.99h1.79ZM68.92,64.53h-1.78v-3.64h1.78v3.64ZM64.07,62.31h-.71v.46h.71v-.46ZM66.53,60.7v1.61h-.63v.46h.82v1.61h-.82v1.86h1.03v.62h3.95v1.64h-3.95v.58h4.54v1.78h-10.92v-1.78h4.31v-.58h-3.83v-1.64h3.83v-.33h-.79v-2.14h-.74c-.03.24-.08.48-.14.71-.18.57-.52,1.05-1,1.42-.08.06-.15.12-.23.18l-1.35-1.34c.36-.25.62-.57.78-.98h-.9v-1.61h1.04v-.46h-.76v-1.61h5.77Z"/>
      <polygon class="cls-3" points="18.42 74.84 18.42 76.43 20.59 76.43 20.59 74.84 21.72 74.84 21.72 79.36 20.59 79.36 20.59 77.47 18.42 77.47 18.42 79.36 17.29 79.36 17.29 74.84 18.42 74.84"/>
      <path class="cls-3" d="M26.12,77.38l-.57-1.71-.05-.28-.06.28-.57,1.71h1.26ZM24.59,74.84h1.79l1.58,4.52h-1.19l-.31-.92h-1.96l-.31.92h-1.19l1.58-4.52Z"/>
      <path class="cls-3" d="M31.94,76.15c-.08-.17-.2-.28-.38-.34-.18-.05-.36-.08-.54-.08-.07,0-.14,0-.21.01-.07,0-.14.02-.2.04-.07.02-.13.06-.18.11-.05.05-.08.11-.08.18,0,.07.03.14.09.19s.12.09.19.12c.2.07.42.12.63.17s.42.1.63.16c.21.06.4.15.59.27.19.12.33.27.43.46.1.19.16.4.16.61s-.06.44-.18.64c-.12.2-.27.36-.47.48-.2.11-.42.19-.65.24-.23.04-.46.06-.68.06s-.46-.02-.69-.07c-.23-.05-.44-.13-.64-.24-.2-.12-.36-.27-.49-.46-.12-.19-.2-.4-.24-.62-.01-.06-.02-.12-.03-.18l1.16-.1c.01.14.07.27.16.37.09.11.2.18.34.22.14.04.28.06.42.06.07,0,.15,0,.24-.02.09,0,.17-.03.25-.06.08-.03.15-.07.2-.13.06-.06.08-.14.08-.22,0-.05-.01-.11-.04-.15-.03-.05-.06-.09-.11-.11-.05-.03-.1-.05-.15-.07-.2-.07-.4-.12-.61-.16-.21-.04-.41-.09-.62-.14-.2-.05-.4-.12-.59-.22-.19-.1-.35-.24-.46-.41-.11-.18-.17-.37-.17-.59,0-.22.06-.43.17-.61.12-.19.27-.34.46-.46.19-.12.39-.2.61-.25.22-.05.44-.07.66-.07s.44.02.66.06c.22.04.43.11.63.21.2.1.36.24.49.42.13.18.22.38.26.59l-1.14.13Z"/>
      <polygon class="cls-3" points="35.56 74.84 35.56 76.43 37.73 76.43 37.73 74.84 38.86 74.84 38.86 79.36 37.73 79.36 37.73 77.47 35.56 77.47 35.56 79.36 34.43 79.36 34.43 74.84 35.56 74.84"/>
      <rect class="cls-3" x="40.43" y="74.84" width="1.16" height="4.52"/>
      <path class="cls-3" d="M47.43,76.59v2.3c-.29.19-.6.33-.93.43-.33.09-.67.14-1.02.14-.19,0-.37-.01-.56-.04-.19-.03-.37-.07-.54-.13-.18-.06-.34-.15-.5-.25-.15-.1-.29-.22-.41-.36-.12-.14-.21-.3-.29-.47-.07-.17-.12-.34-.16-.52-.04-.18-.05-.36-.05-.54,0-.21.02-.41.07-.62.05-.2.12-.4.21-.59.1-.19.21-.36.36-.51.15-.15.31-.28.5-.39.19-.11.38-.18.6-.23.21-.04.42-.07.64-.07.25,0,.5.03.75.09.25.06.47.15.69.29.21.14.39.3.55.5l-.88.71c-.12-.16-.27-.3-.45-.4-.18-.11-.37-.16-.58-.16-.14,0-.28.02-.41.06-.13.04-.26.1-.37.19-.11.08-.2.19-.27.3-.07.12-.12.24-.15.37-.03.13-.04.27-.04.4,0,.15.01.29.04.43.03.14.08.28.15.41.07.13.17.24.29.33.12.09.25.16.4.2.14.04.29.06.44.06.3,0,.57-.08.81-.24v-.61h-.86v-1.07h1.99Z"/>
      <path class="cls-3" d="M51.13,75.78c-.14,0-.28.02-.42.06-.14.04-.26.1-.38.18-.11.08-.21.18-.29.3-.08.12-.14.24-.18.38-.04.14-.06.27-.06.41s.02.27.06.41c.04.13.1.26.18.37.08.12.18.21.29.3.12.08.24.14.38.18.14.04.28.06.42.06s.28-.02.42-.06c.14-.04.26-.1.38-.18.12-.08.21-.18.29-.3.08-.11.14-.24.18-.37.04-.14.06-.27.06-.41s-.02-.27-.06-.41c-.04-.14-.1-.26-.18-.38-.08-.11-.18-.21-.29-.3-.12-.08-.24-.14-.38-.18-.14-.04-.28-.06-.42-.06M51.13,74.74c.21,0,.42.02.64.07.21.05.41.12.6.22.19.1.36.22.51.37.15.15.28.31.37.5.1.18.17.38.21.58.04.2.07.41.07.62s-.02.41-.07.62c-.04.2-.12.4-.21.58-.1.19-.22.35-.37.5-.15.15-.32.27-.51.37-.19.1-.39.17-.6.22-.21.05-.42.07-.64.07s-.42-.02-.63-.07-.41-.12-.6-.22c-.19-.1-.36-.22-.51-.37-.15-.15-.28-.32-.37-.5-.1-.18-.17-.38-.21-.58-.05-.2-.07-.41-.07-.62s.02-.41.07-.62c.04-.2.11-.4.21-.58.1-.19.22-.35.37-.5.15-.15.32-.27.51-.37.19-.1.39-.17.6-.22s.42-.07.63-.07"/>
    </g>
  </g>
</svg>