<?xml version="1.0" encoding="UTF-8"?>
<svg id="_レイヤー_1" data-name="レイヤー 1" xmlns="http://www.w3.org/2000/svg" viewBox="0 0 238.55 135.11">
  <defs>
    <style>
      .cls-1 {
        fill: #fff;
      }

      .cls-2 {
        opacity: .1;
      }
    </style>
  </defs>
  <g class="cls-2">
    <path class="cls-1" d="M14.06,34.66c-.08,24.68-.17,49.47-.22,74.14,0,1.41.58,2.42,1.31,2.24.21-.05.31-.06.52-.11.73-.17,1.32-1.42,1.31-2.82.08-24.45.17-49.01.25-73.45,5.02,0,7.53,0,12.55.03-.11,25.73-.24,51.56-.35,77.29.12,5.79-2.14,14.35-7.93,16.94-4.92,1.41-7.39,2.11-12.31,3.52-6.65.97-7.87-9.18-7.91-13.71.06-28.01.11-56.11.17-84.11,5.06.02,7.58.02,12.62.02v.02Z"/>
    <path class="cls-1" d="M34.54,34.7c6.8.02,13.61.03,20.41.05,5.98.67,7.95,8.06,7.83,13.06-.08,10.47-.18,20.94-.25,31.41.13,5.37-2.4,12.91-7.99,14.75-3.1.61-4.64.93-7.74,1.54-.05,8.71-.12,17.51-.17,26.22-4.17,1.19-8.35,2.39-12.53,3.58.15-30.16.3-60.44.47-90.6h-.02ZM46.91,77.66c.73-.1,1.09-.15,1.82-.25s1.32-1.19,1.34-2.45c.05-7.02.1-14.04.15-21.06,0-1.27-.57-2.24-1.31-2.21s-1.1.06-1.84.1c-.05,8.62-.11,17.25-.16,25.87Z"/>
    <path class="cls-1" d="M74.56,34.77c4.97.02,7.44,0,12.41.03,5.58.46,7.92,6.78,7.78,11.61-.06,4.39-.08,6.57-.13,10.96-5.01.44-7.52.65-12.53,1.07.02-2.62.04-3.92.07-6.54,0-1.13-.56-1.99-1.29-1.96-.2.02-.3.01-.52.02-.73.03-1.33.98-1.34,2.12-.03,3.06-.06,4.58-.08,7.64,0,.69.14,1.36.28,1.46,4.63,4.64,9.3,9.23,14.17,13.62.64.76,1,1.88.98,2.95-.08,6.52-.17,13.13-.25,19.65-.15,5.24-2.85,11.02-8.01,13-4.92,1.41-7.39,2.11-12.31,3.52-5.96,1.34-8.02-6.36-7.83-10.74.03-4.61.08-9.23.11-13.84,5.03-.96,7.55-1.43,12.56-2.4-.03,3.06-.06,4.58-.08,7.64-.01,1.14.57,1.92,1.29,1.76.21-.05.31-.06.52-.11.73-.17,1.32-1.19,1.33-2.33.03-3.02.05-4.62.08-7.64,0-.67-.2-1.43-.56-1.69-4.73-3.99-9.33-8.14-13.82-12.4-.73-.85-1.15-2.11-1.14-3.66.06-7.28.13-14.56.18-21.82,0-4.9,2.44-11.42,8.11-11.92l.05.02v-.02Z"/>
    <path class="cls-1" d="M111.98,92.04c4.39,0,6.59.02,10.98.02,0,5.36,0,10.71-.01,16.07-8.04-.02-16.06-.03-24.1-.04.27-24.33.54-48.91.8-73.25,5.06.02,7.58.02,12.62.02-.11,18.99-.2,38.2-.31,57.18h.02Z"/>
    <path class="cls-1" d="M127.42,34.88c5.06.02,7.58.02,12.62.02.17,24.33.32,48.91.49,73.24-4.34,0-8.69-.02-13.03-.03-.03-24.34-.06-48.9-.08-73.25v.02Z"/>
    <path class="cls-1" d="M145.18,34.92c6.8.02,13.61.03,20.41.05,5.98.58,8.04,7.9,7.99,12.89.09,18.5.18,36.98.25,55.48.18,4.32-1.89,12.04-7.8,10.71-6.74-1.96-13.49-3.92-20.23-5.88-.21-24.42-.42-48.84-.63-73.24h.02s0,0,0,0ZM157.92,50.04c.1,15.33.2,30.66.3,45.97.73.16,1.09.26,1.82.42s1.3-.62,1.29-1.75c-.09-14.15-.18-28.27-.27-42.41,0-1.15-.59-2.09-1.34-2.13-.73-.04-1.1-.07-1.83-.11h.02Z"/>
    <path class="cls-1" d="M178.62,117.71c-.11-27.58-.22-55.15-.32-82.72,9.19.01,18.35.04,27.53.05,0,6.63.02,13.29.02,19.92-4.96-.32-9.92-.65-14.87-.97,0,4.89.03,9.78.03,14.69,5.06.58,7.6.86,12.66,1.45,0,6.6.02,13.2.02,19.78-5.05-.9-7.58-1.35-12.64-2.25,0,4.89.03,9.8.03,14.69l14.8,3.36c0,6.63.02,13.29.02,19.92-9.1-2.65-18.19-5.29-27.29-7.93h-.02s0,0,0,0Z"/>
    <path class="cls-1" d="M210.22,35.06c6.8.02,13.61.03,20.41.05,6.69.76,8.11,10.59,7.9,15.84-.02,6.06-.03,12.11-.04,18.17.13,4.16.26,13.61-5.29,14.64,0,.46,0,.69,0,1.16,5.37,2.16,5.39,11.34,5.22,16.03-.03,11.39-.05,22.77-.08,34.16-4.97-1.45-7.46-2.17-12.43-3.62.01-11.44.02-22.89.03-34.33,0-1.41-.58-2.65-1.31-2.77-.2-.04-.31-.06-.51-.1-.73-.13-1.31.88-1.31,2.29,0,11.34-.02,22.68-.03,34.02-4.18-1.21-8.34-2.42-12.52-3.63-.02-30.63-.02-61.23-.04-91.86v-.03s0,0,0,0ZM224.67,70.99c.73.07,1.31-.98,1.32-2.39,0-4.8.01-7.21,0-12.01,0-1.41-.59-2.58-1.32-2.62s-1.1-.07-1.83-.11c0,5.64,0,11.29-.02,16.95.73.07,1.1.12,1.83.2v-.02Z"/>
    <path class="cls-1" d="M63.78,128.1h1.46s0,2.63,0,2.63h2.7s0-2.62,0-2.62h1.46s-.01,6.63-.01,6.63h-1.46s0-2.67,0-2.67h-2.7s0,2.66,0,2.66h-1.46s.01-6.63.01-6.63Z"/>
    <path class="cls-1" d="M73.05,128.07h1.34s2.83,6.68,2.83,6.68h-1.53s-.6-1.5-.6-1.5h-2.8s-.61,1.48-.61,1.48h-1.48s2.85-6.66,2.85-6.66h.02ZM74.58,131.98l-.87-2.15-.89,2.14h1.76Z"/>
    <path class="cls-1" d="M77.6,133.8l.87-1.02c.59.5,1.22.8,1.98.81.6,0,.95-.23.95-.62s-.21-.57-1.33-.86c-1.34-.35-2.19-.71-2.18-2.03,0-1.22.98-2,2.32-2.01.97,0,1.79.3,2.46.85l-.76,1.1c-.59-.41-1.17-.66-1.72-.65s-.85.25-.84.57c0,.46.28.59,1.42.89,1.35.35,2.09.84,2.1,1.98-.01,1.34-1.02,2.06-2.45,2.07-1.01,0-2.02-.35-2.8-1.06h-.02s0-.02,0-.02Z"/>
    <path class="cls-1" d="M83.94,128.15l5,.02v1.3s-3.54,0-3.54,0v1.34s3.13,0,3.13,0v1.3s-3.12,0-3.12,0v1.39s3.6.01,3.6.01v1.3s-5.04-.01-5.04-.01v-6.63s-.02-.01-.02-.01v-.02Z"/>
    <path class="cls-1" d="M89.8,131.49c0-1.9,1.47-3.45,3.48-3.43,1.2,0,1.91.33,2.61.92l-.92,1.11c-.51-.43-.97-.67-1.73-.67-1.06,0-1.91.94-1.9,2.06,0,1.23.83,2.12,1.99,2.12.53,0,1-.13,1.38-.39v-.95s-1.47,0-1.47,0v-1.25s2.87.01,2.87.01v2.87c-.7.58-1.63,1.05-2.85,1.04-2.06,0-3.49-1.45-3.48-3.41v-.02Z"/>
    <path class="cls-1" d="M99.61,128.14h1.34s2.83,6.68,2.83,6.68h-1.53s-.6-1.5-.6-1.5h-2.8s-.61,1.48-.61,1.48h-1.48s2.85-6.66,2.85-6.66h.02ZM101.13,132.03l-.87-2.15-.89,2.14h1.76Z"/>
    <path class="cls-1" d="M103.17,128.19h1.57s1.37,4.5,1.37,4.5l1.49-4.5h1.25s1.47,4.51,1.47,4.51l1.38-4.49h1.53s-2.29,6.69-2.29,6.69h-1.27s-1.48-4.34-1.48-4.34l-1.5,4.34h-1.27s-2.25-6.68-2.25-6.68v-.02Z"/>
    <path class="cls-1" d="M115.44,128.17h1.34s2.83,6.68,2.83,6.68h-1.51s-.6-1.5-.6-1.5h-2.8s-.61,1.48-.61,1.48h-1.48s2.85-6.66,2.85-6.66ZM116.97,132.06l-.87-2.15-.89,2.14h1.76Z"/>
    <path class="cls-1" d="M122.82,131.56c0-1.9,1.51-3.44,3.55-3.44,2.05,0,3.51,1.53,3.51,3.42,0,1.9-1.51,3.44-3.55,3.44-2.04,0-3.51-1.53-3.51-3.42ZM128.34,131.57c.02-1.16-.82-2.1-2-2.11s-2,.93-1.99,2.06c-.02,1.16.82,2.1,2,2.11s2-.93,1.99-2.06Z"/>
    <path class="cls-1" d="M130.97,128.24h3.03c.84,0,1.5.25,1.92.67.38.37.57.9.57,1.52-.01,1.09-.59,1.76-1.43,2.07l1.62,2.37h-1.71s-1.41-2.13-1.41-2.13h-1.15s0,2.12,0,2.12h-1.46s.01-6.63.01-6.63v.02ZM133.89,131.47c.71,0,1.13-.38,1.12-.93,0-.65-.42-.97-1.15-.97h-1.45s0,1.9,0,1.9h1.48Z"/>
    <path class="cls-1" d="M137.7,128.26h1.46s-.01,6.63-.01,6.63h-1.46s.01-6.63.01-6.63Z"/>
    <path class="cls-1" d="M140.32,131.6c0-1.9,1.47-3.45,3.48-3.43,1.2,0,1.91.33,2.61.92l-.92,1.11c-.51-.43-.97-.67-1.73-.67-1.06,0-1.91.94-1.9,2.06,0,1.23.83,2.12,1.99,2.12.53,0,1-.13,1.38-.39v-.95s-1.47,0-1.47,0v-1.25s2.87.01,2.87.01v2.87c-.7.58-1.63,1.05-2.85,1.04-2.06,0-3.49-1.45-3.48-3.41v-.02Z"/>
    <path class="cls-1" d="M147.92,128.28h1.46s-.01,6.63-.01,6.63h-1.46s.01-6.63.01-6.63Z"/>
    <path class="cls-1" d="M150.85,128.28h1.34s3.11,4.08,3.11,4.08l.02-4.09h1.45s-.01,6.63-.01,6.63h-1.24s-3.2-4.22-3.2-4.22v4.21s-1.45,0-1.45,0v-6.63s0,0,0,0v.02Z"/>
    <path class="cls-1" d="M160.42,128.26h1.34s2.83,6.68,2.83,6.68h-1.53s-.6-1.5-.6-1.5h-2.8s-.61,1.48-.61,1.48h-1.48s2.85-6.66,2.85-6.66h.02ZM161.93,132.16l-.87-2.15-.89,2.14h1.76Z"/>
    <path class="cls-1" d="M165.43,128.31h1.46s0,5.31,0,5.31h3.3s0,1.33,0,1.33h-4.76s.01-6.64.01-6.64Z"/>
    <path class="cls-1" d="M170.63,133.99l.87-1.02c.59.5,1.22.8,1.98.81.6,0,.95-.23.95-.62s-.21-.57-1.33-.86c-1.34-.35-2.19-.71-2.2-2.04,0-1.22.98-2,2.32-2.01.97,0,1.79.3,2.46.85l-.76,1.1c-.59-.41-1.17-.66-1.72-.65s-.85.25-.84.57c0,.46.28.59,1.42.89,1.35.35,2.09.84,2.1,1.98-.01,1.34-1.02,2.06-2.45,2.07-1.01,0-2.02-.35-2.8-1.06v-.02Z"/>
  </g>
</svg>