<?xml version="1.0" encoding="UTF-8"?>
<svg id="_レイヤー_2" data-name="レイヤー_2" xmlns="http://www.w3.org/2000/svg" viewBox="0 0 198.2 49.55">
  <defs>
    <style>
      .cls-1 {
        fill: #fff;
      }

      .cls-2 {
        fill: #cf1225;
      }
    </style>
  </defs>
  <g id="_レイヤー_8" data-name="レイヤー_8">
    <g>
      <path class="cls-2" d="M198.2,24.77c0,13.63-11.15,24.77-24.77,24.77H24.77C11.15,49.55,0,38.4,0,24.77h0C0,11.15,11.15,0,24.77,0h148.65c13.63,0,24.77,11.15,24.77,24.77h0Z"/>
      <path class="cls-1" d="M2.58,24.77C2.58,12.53,12.53,2.57,24.77,2.57h148.65c12.24,0,22.2,9.96,22.2,22.2s-9.96,22.2-22.2,22.2H24.77c-12.24,0-22.2-9.96-22.2-22.2ZM24.77,7.33c-9.62,0-17.44,7.82-17.44,17.44s7.82,17.44,17.44,17.44h148.65c9.62,0,17.44-7.82,17.44-17.44s-7.82-17.44-17.44-17.44H24.77Z"/>
      <g>
        <path class="cls-1" d="M63.22,25.99c-1.02-.46-2.64-1.63-2.1-4.16.47-2.22,1.98-3.87,4.36-4.77,1.27-.49,2.55-.57,3.76-.61h9.39l-.61,2.89h-7.85c-.53,0-1.15.03-1.77.24-1.06.34-1.72.99-1.91,1.88-.04.18-.06.35-.06.52,0,.71.38,1.22,1.12,1.52.5.2,1.18.32,1.87.32h1.9c1.47,0,2.81.24,3.77.67,1.68.75,2.4,2.28,1.99,4.21-.47,2.21-1.99,3.86-4.38,4.76-1.31.51-2.62.59-3.75.62h-9.9l.61-2.89h8.4c.53,0,1.15-.03,1.79-.24,1.06-.35,1.73-1,1.91-1.88.04-.2.06-.38.06-.56,0-.71-.35-1.2-1.05-1.48-.48-.19-1.24-.32-1.95-.32h-1.98c-1.33,0-2.59-.25-3.63-.72Z"/>
        <path class="cls-1" d="M176.54,16.44c1.18.04,2.33.11,3.39.61h0c1.61.73,2.44,1.95,2.44,3.57,0,.37-.04.75-.13,1.16l-2.61,12.3h-9.94c-1.24-.04-2.54-.14-3.57-.62-1.86-.83-2.85-2.14-2.85-3.73,0-.29.03-.59.1-.89.56-2.64,2.77-3.82,4.03-4.3,1.25-.47,2.62-.72,3.97-.72h3.45l-.61,2.89h-1.77c-.83,0-1.51.09-2.02.27-.93.32-1.6.77-1.85,1.95-.03.15-.05.3-.05.44,0,.72.42,1.3,1.17,1.58.55.21,1.17.24,1.7.24h4.11s2.04-9.58,2.06-9.7c.22-.95-.14-1.63-1.03-1.97-.49-.19-1.13-.19-1.75-.19h-7.39l.61-2.89h8.54Z"/>
        <path class="cls-1" d="M131.11,16.44c1.18.04,2.33.11,3.39.61h0c1.61.73,2.44,1.95,2.44,3.57,0,.37-.04.75-.13,1.16l-2.61,12.3h-9.94c-1.24-.04-2.54-.14-3.57-.62-1.86-.83-2.85-2.14-2.85-3.73,0-.29.03-.59.1-.89.56-2.64,2.77-3.82,4.03-4.3,1.25-.47,2.62-.72,3.97-.72h3.45l-.61,2.89h-1.77c-.83,0-1.51.09-2.02.27-.93.32-1.6.77-1.85,1.95-.03.15-.05.3-.05.44,0,.72.42,1.3,1.17,1.58.55.21,1.17.24,1.7.24h4.11s2.04-9.58,2.06-9.7c.22-.95-.14-1.63-1.03-1.97-.49-.19-1.13-.19-1.75-.19h-7.39l.61-2.89h8.54ZM134.58,16.87h0s0,0,0,0c0,0,0,0,0,0Z"/>
        <path class="cls-1" d="M53.27,16.44c1.18.04,2.33.11,3.39.61h0c1.61.73,2.44,1.95,2.44,3.57,0,.37-.04.75-.13,1.16l-2.61,12.3h-9.94c-1.24-.04-2.54-.14-3.57-.62-1.86-.83-2.85-2.14-2.85-3.73,0-.29.03-.59.1-.89.56-2.64,2.77-3.82,4.03-4.3,1.25-.47,2.62-.72,3.97-.72h3.45c-.05.22-.58,2.75-.61,2.89h-1.77c-.83,0-1.51.09-2.02.27-.93.32-1.6.77-1.85,1.95-.03.15-.05.3-.05.44,0,.72.42,1.3,1.17,1.58.55.21,1.17.24,1.7.24h4.11s2.04-9.58,2.06-9.7c.22-.95-.14-1.63-1.03-1.97-.49-.19-1.13-.19-1.75-.19h-7.39l.61-2.89h8.54ZM56.74,16.87s0,0,0,0h0s0,0,0,0Z"/>
        <path class="cls-1" d="M41.75,10.99l-4.91,23.09h-4.75s2.22-10.46,2.22-10.46h-8.41l-2.22,10.46h-4.75s4.91-23.09,4.91-23.09h4.75s-2.07,9.73-2.07,9.73h8.41l2.07-9.73h4.75Z"/>
        <path class="cls-1" d="M100.83,32.61c-1.15-.87-2.37-2.42-2.37-5.11,0-.69.08-1.45.26-2.3.76-3.59,2.79-6.16,6.04-7.64,1.62-.75,3.2-1.13,4.72-1.13h9.02l-3.76,17.71c-.48,2.22-1.99,3.87-4.36,4.77-1.28.5-2.46.57-3.66.61h-8.49l.61-2.89h7.43c.59,0,1.26,0,1.82-.19,1-.32,1.63-.99,1.82-1.93.03-.11,1.76-8.25,3.2-15.06l.03-.12h-3.91c-.71,0-1.51.26-2.36.77-1.63.99-2.71,2.69-3.21,5.04-.64,3.02.43,4.55.78,4.95.63.73,1.45,1.1,2.43,1.1h1.52l-.61,2.89h-2.24c-1.81,0-3.4-.5-4.71-1.47Z"/>
        <path class="cls-1" d="M81.51,32.69c-2.13-1.54-2.86-3.96-2.17-7.19.79-3.73,2.84-6.39,6.09-7.9,1.62-.77,3.2-1.16,4.72-1.16h1.61c1.4,0,2.57.22,3.57.67h0c1.37.61,2.11,1.74,2.11,3.19,0,.33-.04.67-.11,1.02l-1.14,5.39h-9.82l.61-2.89h4.6l.49-2.32c.04-.18.06-.34.06-.5,0-.39-.11-.72-.32-.99-.36-.45-1-.67-1.9-.67-1.1,0-2.13.41-3.06,1.22-.92.8-1.62,1.86-2.08,3.13-.01.03-.31.85-.43,1.42-.12.57-.19,1.65-.2,1.7.03,1.41.37,2.5,1.02,3.26.61.73,1.42,1.11,2.41,1.13h7.65l-.61,2.89h-8.36c-1.83,0-3.42-.47-4.71-1.39ZM95.4,16.93s0,0,0,0h0Z"/>
        <path class="cls-1" d="M163.99,16.44l-3.75,17.64h-14.61c-1.83,0-3.42-.49-4.71-1.44-1.52-1.12-2.33-2.73-2.4-4.79,0-.1,0-.21,0-.31,0-.69.08-1.44.24-2.22l1.89-8.87h4.73l-1.86,8.71c-.14.67-.2,1.3-.2,1.87,0,.09,0,.17,0,.26.08,2.22,1.23,3.51,3.41,3.86h.09s3.13-14.7,3.13-14.7h4.75l-3.13,14.73h4.55l3.13-14.73h4.75Z"/>
      </g>
    </g>
  </g>
</svg>