<?xml version="1.0" encoding="UTF-8"?>
<svg id="_レイヤー_2" data-name="レイヤー_2" xmlns="http://www.w3.org/2000/svg" viewBox="0 0 415.65 138.35">
  <defs>
    <style>
      .cls-1 {
        fill: #231815;
      }
    </style>
  </defs>
  <g id="_レイヤー_8" data-name="レイヤー_8">
    <g>
      <path class="cls-1" d="M32.92,35.23c-1.22.97-6.68,5.36-7.1,7.74-.21,1.23.58,1.94.87,2.06,2.92,1.61,10.93,1.61,12.66,1.61,6.96,0,16.01-.97,23-3.23-.41,3.36-.71,9.29-.6,12.13-7.93,2-19.3,2.52-24.29,2.52-17.26,0-25.08-4.19-23.48-13.29,1.15-6.52,7.24-11.36,12.76-15.42l6.18,5.87ZM66.29,13.74c-4.29,1.94-14.54,6.97-22.09,13.1-3.06-4.65-3.4-5.16-4.8-7.03,1.79-1.03,3.65-2.2,5.3-3.48-1.88.19-6.08.58-12.43.58-4.25,0-6.2-.13-8.08-.32l1.72-11.16c4.83.9,11.02,1.1,16.2,1.1,6.59,0,13.27-.13,19.99-1.87l4.19,9.1Z"/>
      <path class="cls-1" d="M98.03,18.26c7.16-5.68,11.9-6.65,14.48-6.65,2.77,0,7.94,2.13,6.44,10.65-.53,3.03-1.58,6.52-3.02,11.16-.67,2.06-1.75,5.74-2.33,9.03-.29,1.61-.32,3.23,1.16,3.23.99,0,3.7-.71,7.93-4.77-.1,4.77.6,8.84,1.02,10.97-5.99,5.68-12.42,6.45-14.64,6.45-4.99,0-7.98-4.39-6.67-11.81.56-3.16,4.54-17.03,5.05-19.87.16-.9.54-3.1-1.3-3.1-3.14,0-9.94,6.39-14.51,10.97-2.11,12.33-2.35,13.68-2.75,16.65-.2,1.48-.76,8.13-.87,9.49l-11.62.52c.81-2.52,1.68-7.1,2.15-9.75.1-.58.5-3.16.65-3.68l-5.95,7.16-6.4-8.78c7.39-6.26,14.63-14.45,15.63-15.62l.46-2.58c-7.92,1.94-8.67,2-9.99,2.13l.21-11.68c4.7.26,8.1-.52,11.95-1.35.55-2.78,2.19-11.75,2.45-14.58l10.31,1.29c.78.13,1.37.26,1.22,1.1-.14.77-.81,1.1-1.42,1.42-.59,1.61-1.3,3.55-2.44,8.97l2.79,3.03Z"/>
      <path class="cls-1" d="M161.79,5.1c.59.13,1.11.32.99,1.03-.15.84-1.04,1.03-1.42,1.03-1.14,2.97-1.8,4.65-3.01,7.61,7.89,0,13.64,3.03,10.85,18.84-.14.77-2.67,15.16-9.26,22.45-2.07,2.32-4.86,4.13-10.59,4.13-3.76,0-4.86-.39-5.74-.65.79-4.13,1-8.13.93-11.94,3.48.9,4.5,1.03,5.49,1.03.62,0,2.28,0,3.5-1.68,3.09-4.26,4.76-12.65,4.95-13.74,1.25-7.1-.29-7.81-4.74-7.74-5.38,12.32-12.16,24.2-20.64,34.91-3.14-3.16-7.97-5.49-8.99-6,5.68-6.32,13.44-17.49,18.11-26.84-5.33,1.55-8.27,2.84-9.61,3.48l-1.15-11.68c4.19-.71,4.7-.77,5.79-1.03,1.28-.26,8.27-1.81,9.74-2.13,1.12-2.84,2.99-8.58,3.96-13.74l10.81,2.65ZM178.69,14.07c-.33-.9-2.35-4.52-3.78-6.52l5.51-3.29c2.6,3.42,3.69,6,4.22,7.16-2.13,1.23-3.02,1.74-5.46,3.36,1.88,2.65,7.87,13.74,6.66,20.58-.73,4.13-3.24,7.87-12.62,9.68-.16-2.26-1-6.9-2.21-9.81,1.75-.13,3.62-.58,3.95-2.45.43-2.45-.99-8-4.9-14.52l8.63-4.19ZM187.77.71c1.42,1.74,3.2,4.58,4.17,7.1-.49.32-.7.45-2.85,1.81-.48.26-1.93,1.16-2.85,1.81-1.62-4.45-3.28-6.58-4.02-7.61l5.54-3.1Z"/>
      <path class="cls-1" d="M209.77,7.29c.47.13.98.39.88.97-.16.9-1.31,1.16-2.15,1.36-3.67,7.16-6.37,17.23-7.47,23.49-.23,1.29-.64,3.61-.79,6.9.98-1.36,2.27-3.1,3.38-4.84.5,1.03,1.64,3.29,3.63,6-4.38,5.61-7.2,11.81-8,17.03l-9.71,1.61c-.83-8.9.05-18.13,1.69-27.42,2.58-14.65,6.58-24.39,8.35-28.46l10.19,3.35ZM239.94,5.36c.54.06,1.2.19,1.07.9-.15.84-1.08,1.23-1.81,1.55-.47,1.29-.98,2.78-1.71,6.58,5.24-1.03,7.22-1.81,8.74-2.39l-1.61,10.84c-1.57.52-3.97,1.23-8.99,2.06-1.12,6.71-1.7,13.81-1.83,14.91,3.14,1.42,7.6,3.74,9.86,6.65-3.99,5.48-4.4,6.07-6.72,9.81-.87-1.03-3.06-3.29-5.26-4.78-.83,2.26-3.17,8.52-13.77,8.52-12.88,0-12.53-8.65-12.04-11.42,1.56-8.84,11.08-11.1,15.82-11.1.86,0,1.36,0,1.95.13.54-5.49.64-6.07,1.34-11.42-4.57.39-7.53.39-8.26.39-.8,0-2.22,0-3.97-.19l2.06-10.97c2.68.52,4.89.58,7.17.58,2.1,0,3.53-.06,4.46-.13.28-1.94,1.73-10.52,1.91-12.26l11.59,1.74ZM218.85,46.33c-.62,0-3.41.13-3.78,2.19-.36,2.07,2.46,2.13,2.95,2.13.43,0,4.25,0,4.5-3.48-.68-.32-1.82-.84-3.67-.84Z"/>
      <path class="cls-1" d="M271.58,4.84c1.09.13,1.63.19,1.48,1.03-.14.77-.98,1.03-1.83,1.29-2.99,8.9-6.1,24.46-6.77,28.26-1.29,7.29-2.14,13.55,3.96,13.55,9.68,0,20.94-13.55,24.19-18.71,3.52,6.58,5.17,8.77,6.12,10-3.77,4.97-16.98,20.78-33.55,20.78s-13.71-14.52-11.62-26.39c.62-3.48,3.69-18.84,4.25-22,.11-.65,1.06-6,1.37-9.49l12.4,1.68Z"/>
      <path class="cls-1" d="M318.5,35.81c-3.19,2.39-6.37,5.03-6.75,7.16-.67,3.81,8.26,4.19,12.45,4.19,3.45,0,13.77-.52,23.29-3.48-.24,2.06-.58,4.32-.73,12.2-7.29,1.87-16.18,2.65-22.78,2.65-9.55,0-26.75-1.03-24.56-13.42.89-5.03,5.27-9.29,6.98-10.9.88-.77,4.89-4,5.7-4.71l6.4,6.32ZM348.36,15.03c-5,2.52-14.11,7.68-18.4,11.74-1.26-1.94-3.68-4.97-5.38-6.52.92-.65,4.97-3.36,5.8-3.87-6.41.71-16.18.9-20.71.71l1.54-11.16c3.84.58,11.63.78,15.83.78,5.73,0,12.65-.45,18.48-1.68l2.86,10ZM352.93,5.87c1.42,1.74,3.29,5.1,4.05,7.1-.44.39-2.98,2.58-4.5,4.19-1.43-3.42-3.66-6.52-4.2-7.29l4.65-4ZM358.4,0c1.67,2.06,3.09,4.52,4.35,6.78-1.55,1.1-3.47,2.9-4.55,4.13-1.61-3.1-2.61-4.77-4.09-6.84l4.29-4.06Z"/>
      <path class="cls-1" d="M383.4,49.75c13.76-2.19,19.46-12.13,20.67-19.04.34-1.94,2.33-13.23-10.25-14.91-4.32,19.23-16.68,40.39-24.93,40.39-5.18,0-12.96-7.94-10.62-21.23,2.62-14.84,17.19-29.68,35.31-29.68,14.73,0,24.35,9.74,21.61,25.29-.86,4.9-3.06,13.16-13.16,21.87-5.39,4.71-10.82,6.52-14.22,7.61-.35-1.16-2.2-6.39-4.4-10.32ZM368.44,34.97c-.81,4.58.67,8.07,1.97,8.07,2.22,0,9.25-12.97,12.1-25.62-5.06,1.81-12.71,9.87-14.06,17.55Z"/>
      <path class="cls-1" d="M31.75,95.31c.42-4.13.89-7.16,2.61-16.91l11.03.71c.43,0,1.06.26.96.84-.14.77-.93,1.1-1.94,1.55-.3,1.36-.67,3.1-1.13,5.74-.41,2.32-.58,3.61-1.02,6.84l7.62-.9c-.39-1.61-2.02-6.39-4-9.81l8.58-4.97c1.68,2.71,3.89,7.29,5.01,10.71-.53.19-5.94,3.29-6.82,3.74l8.24-.97-.94,10.58-18.43,2.13c-.25,10.84,3.2,19.94,5.3,19.94,1.11,0,2.72-4.97,3.18-6.52,1.06,1.68,3.55,5.36,6.87,6.84-4.84,13.49-8.48,13.49-10.39,13.49-6.84,0-11.05-9.36-11.7-10.91-3.63-8.07-3.7-16.07-3.65-21.62l-9.7,1.16.7-10.26c-.22.19-.49.32-.94.45l-7.24,41.04H3.17l4.93-27.94c-1.52,1.61-2.16,2.13-2.89,2.77-1.79-3.81-2.99-5.74-5.2-8.58,11.45-10.39,18.07-23.17,19.26-26.39l9.93,3.81c.35.13.73.39.63.97-.17.97-1.55,1.1-2.25,1.23-2,3.68-4.14,7.03-6.46,10.39,1.58.45,1.91.71,1.79,1.35-.03.19-.2.45-.35.58l9.19-1.1Z"/>
      <path class="cls-1" d="M74.21,122.93c-2.17,1.1-7.36,3.61-11.53,4.58-.54-2.52-2.64-6.71-5.02-9.29,6.68-1.55,16.88-5.55,24.25-10.65-1.41-2.13-2.66-3.42-4.67-5.68-3.62,3.03-6.79,4.97-8.1,5.74-1.78-3.87-3-5.36-6.02-7.81,9.88-5.03,19.31-15.49,23.35-22.33l10.21,1.87c.72.13,1.08.52.98,1.1-.11.65-.67,1.03-1.8,1.48-.4.52-1.19,1.48-1.5,1.87h15.59l3.72,4.06c-5.2,7.81-11.35,15.1-18.36,21.29h20.58l-5.09,28.84h-10.91l.38-2.13h-17.75l-.38,2.13h-10.6l2.66-15.1ZM101.96,126.35l1.33-7.55h-17.75l-1.33,7.55h17.75ZM86.62,93.12c-.3.32-.39.45-1.14,1.23,1.53,1.48,3.54,3.68,5.33,6.13,4.63-4.26,5.9-6.19,6.54-7.36h-10.72Z"/>
      <path class="cls-1" d="M125.13,135.06l-.53,3.03h-9.12l4.05-22.97h21.69l-3.95,22.39h-9l.43-2.45h-3.57ZM141.36,106.6l-1.19,6.78h-18.92l1.2-6.78h18.92ZM146.37,88.66l-1.35,7.68h-23.05l1.35-7.68h23.05ZM142.88,97.96l-1.19,6.78h-18.92l1.2-6.78h18.92ZM146.03,80.15l-1.18,6.71h-18.92l1.18-6.71h18.92ZM130.05,127.38l.84-4.78h-3.57l-.84,4.78h3.57ZM164.06,104.02l-3.72,21.1h-10.35l-.79,4.45h-8.2l4.51-25.55h18.55ZM166.83,92.53l-1.5,8.52h-19.66l1.5-8.52h19.66ZM180.35,80.15l-8.77,49.75c-1.46,8.26-8.54,8.26-12.98,8.26-.68,0-1.23,0-1.84-.07.25-4.19-.28-7.16-1.33-10.65,2.04.32,3.12.45,4.23.45,1.6,0,2.41-.07,2.78-2.13l6.39-36.26h-22.43l1.65-9.36h32.29ZM152.31,111.96l-.92,5.23h2.77l.92-5.23h-2.77Z"/>
      <path class="cls-1" d="M194.61,127.51c-.9,5.1-5.57,9.23-10.44,9.23s-8.08-4.13-7.19-9.23c.91-5.16,5.63-9.23,10.44-9.23s8.1,4.06,7.19,9.23ZM181.12,127.51c-.48,2.71,1.23,4.9,3.82,4.9s5.07-2.19,5.55-4.9c.49-2.77-1.23-4.9-3.82-4.9s-5.06,2.13-5.55,4.9Z"/>
    </g>
  </g>
</svg>