<?xml version="1.0" encoding="UTF-8"?>
<svg id="_レイヤー_2" data-name="レイヤー_2" xmlns="http://www.w3.org/2000/svg" viewBox="0 0 151.55 52.17">
  <defs>
    <style>
      .cls-1 {
        fill: #231815;
      }
    </style>
  </defs>
  <g id="_レイヤー_8" data-name="レイヤー_8">
    <g>
      <path class="cls-1" d="M7.22,13.28c-.46.37-2.52,2.02-2.68,2.92-.08.46.22.73.33.78,1.1.61,4.12.61,4.77.61,2.63,0,6.04-.36,8.67-1.22-.15,1.27-.27,3.5-.23,4.57-2.99.75-7.28.95-9.16.95C2.42,21.9-.53,20.31.08,16.88c.43-2.46,2.73-4.28,4.81-5.81l2.33,2.21ZM19.8,5.18c-1.62.73-5.48,2.63-8.33,4.94-1.15-1.75-1.28-1.95-1.81-2.65.67-.39,1.38-.83,2-1.31-.71.07-2.29.22-4.69.22-1.6,0-2.34-.05-3.05-.12l.65-4.21c1.82.34,4.16.41,6.11.41,2.49,0,5-.05,7.54-.71l1.58,3.43Z"/>
      <path class="cls-1" d="M31.77,6.88c2.7-2.14,4.49-2.51,5.46-2.51,1.05,0,3,.8,2.43,4.01-.2,1.14-.6,2.46-1.14,4.21-.25.78-.66,2.17-.88,3.41-.11.61-.12,1.22.44,1.22.37,0,1.39-.27,2.99-1.8-.04,1.8.23,3.33.39,4.14-2.26,2.14-4.68,2.43-5.52,2.43-1.88,0-3.01-1.65-2.51-4.45.21-1.19,1.71-6.42,1.9-7.49.06-.34.21-1.17-.49-1.17-1.18,0-3.75,2.41-5.47,4.14-.8,4.65-.89,5.16-1.04,6.28-.08.56-.28,3.07-.33,3.58l-4.38.19c.31-.95.64-2.68.81-3.67.04-.22.19-1.19.24-1.39l-2.24,2.7-2.41-3.31c2.79-2.36,5.52-5.45,5.89-5.89l.17-.97c-2.99.73-3.27.75-3.77.8l.08-4.4c1.77.1,3.06-.19,4.5-.51.21-1.05.83-4.43.92-5.5l3.89.49c.29.05.52.1.46.41-.05.29-.31.41-.54.54-.22.61-.49,1.34-.92,3.38l1.05,1.14Z"/>
      <path class="cls-1" d="M55.81,1.92c.22.05.42.12.37.39-.06.32-.39.39-.53.39-.43,1.12-.68,1.75-1.13,2.87,2.97,0,5.14,1.14,4.09,7.1-.05.29-1.01,5.72-3.49,8.47-.78.88-1.83,1.56-3.99,1.56-1.42,0-1.83-.15-2.17-.24.3-1.56.38-3.07.35-4.5,1.31.34,1.7.39,2.07.39.23,0,.86,0,1.32-.63,1.17-1.61,1.79-4.77,1.87-5.18.47-2.68-.11-2.94-1.79-2.92-2.03,4.65-4.58,9.12-7.78,13.16-1.18-1.19-3-2.07-3.39-2.26,2.14-2.38,5.07-6.59,6.83-10.12-2.01.58-3.12,1.07-3.62,1.31l-.43-4.4c1.58-.27,1.77-.29,2.18-.39.48-.1,3.12-.68,3.67-.8.42-1.07,1.13-3.24,1.49-5.18l4.08,1ZM62.19,5.3c-.12-.34-.88-1.7-1.43-2.46l2.08-1.24c.98,1.29,1.39,2.26,1.59,2.7-.8.46-1.14.66-2.06,1.27.71,1,2.97,5.18,2.51,7.76-.27,1.56-1.22,2.97-4.76,3.65-.06-.85-.38-2.6-.84-3.7.66-.05,1.36-.22,1.49-.92.16-.92-.37-3.02-1.85-5.47l3.25-1.58ZM65.61.27c.53.66,1.21,1.73,1.57,2.68-.18.12-.26.17-1.07.68-.18.1-.73.44-1.07.68-.61-1.68-1.24-2.48-1.52-2.87l2.09-1.17Z"/>
      <path class="cls-1" d="M73.91,2.75c.18.05.37.15.33.37-.06.34-.5.44-.81.51-1.38,2.7-2.4,6.5-2.82,8.86-.09.49-.24,1.36-.3,2.6.37-.51.86-1.17,1.27-1.82.19.39.62,1.24,1.37,2.26-1.65,2.12-2.71,4.45-3.02,6.42l-3.66.61c-.31-3.36.02-6.84.64-10.34.97-5.52,2.48-9.2,3.15-10.73l3.84,1.27ZM85.29,2.02c.21.02.45.07.41.34-.06.32-.41.46-.68.58-.18.49-.37,1.05-.65,2.48,1.97-.39,2.72-.68,3.3-.9l-.6,4.09c-.59.19-1.5.46-3.39.78-.42,2.53-.64,5.21-.69,5.62,1.18.54,2.87,1.41,3.72,2.51-1.5,2.07-1.66,2.29-2.53,3.7-.33-.39-1.15-1.24-1.98-1.8-.31.85-1.19,3.21-5.19,3.21-4.86,0-4.72-3.26-4.54-4.31.59-3.33,4.18-4.18,5.97-4.18.33,0,.51,0,.74.05.2-2.07.24-2.29.5-4.31-1.72.15-2.84.15-3.12.15-.3,0-.84,0-1.5-.07l.78-4.14c1.01.19,1.84.22,2.7.22.79,0,1.33-.02,1.68-.05.1-.73.65-3.97.72-4.62l4.37.66ZM77.33,17.47c-.23,0-1.29.05-1.42.83s.93.8,1.11.8c.16,0,1.6,0,1.7-1.31-.26-.12-.69-.32-1.39-.32Z"/>
      <path class="cls-1" d="M97.22,1.82c.41.05.61.07.56.39-.05.29-.37.39-.69.49-1.13,3.36-2.3,9.22-2.55,10.66-.48,2.75-.81,5.11,1.49,5.11,3.65,0,7.9-5.11,9.12-7.06,1.33,2.48,1.95,3.31,2.31,3.77-1.42,1.87-6.4,7.83-12.65,7.83s-5.17-5.47-4.38-9.95c.23-1.31,1.39-7.1,1.6-8.3.04-.24.4-2.26.51-3.58l4.68.63Z"/>
      <path class="cls-1" d="M114.91,13.5c-1.2.9-2.4,1.9-2.54,2.7-.25,1.44,3.11,1.58,4.69,1.58,1.3,0,5.19-.19,8.78-1.31-.09.78-.22,1.63-.28,4.6-2.75.71-6.1,1-8.59,1-3.6,0-10.09-.39-9.26-5.06.33-1.9,1.99-3.5,2.63-4.11.33-.29,1.85-1.51,2.15-1.78l2.41,2.38ZM126.17,5.67c-1.89.95-5.32,2.89-6.94,4.43-.48-.73-1.39-1.87-2.03-2.46.35-.24,1.87-1.27,2.19-1.46-2.42.27-6.1.34-7.81.27l.58-4.21c1.45.22,4.39.29,5.97.29,2.16,0,4.77-.17,6.97-.63l1.08,3.77ZM127.89,2.21c.54.66,1.24,1.92,1.53,2.68-.17.15-1.12.97-1.7,1.58-.54-1.29-1.38-2.46-1.58-2.75l1.75-1.51ZM129.96,0c.63.78,1.16,1.7,1.64,2.55-.58.41-1.31,1.09-1.72,1.56-.61-1.17-.98-1.8-1.54-2.58l1.62-1.53Z"/>
      <path class="cls-1" d="M139.39,18.76c5.19-.83,7.34-4.57,7.8-7.18.13-.73.88-4.99-3.87-5.62-1.63,7.25-6.29,15.23-9.4,15.23-1.95,0-4.89-2.99-4-8,.99-5.6,6.48-11.19,13.31-11.19,5.55,0,9.18,3.67,8.15,9.54-.33,1.85-1.15,4.96-4.96,8.25-2.03,1.78-4.08,2.46-5.36,2.87-.13-.44-.83-2.41-1.66-3.89ZM133.74,13.19c-.3,1.73.25,3.04.74,3.04.84,0,3.49-4.89,4.56-9.66-1.91.68-4.79,3.72-5.3,6.62Z"/>
      <path class="cls-1" d="M43.9,35.94c.16-1.56.34-2.7.98-6.37l4.16.27c.16,0,.4.1.36.32-.05.29-.35.41-.73.58-.11.51-.25,1.17-.43,2.17-.15.88-.22,1.36-.39,2.58l2.87-.34c-.15-.61-.76-2.41-1.51-3.7l3.24-1.87c.63,1.02,1.47,2.75,1.89,4.04-.2.07-2.24,1.24-2.57,1.41l3.11-.36-.35,3.99-6.95.8c-.09,4.09,1.21,7.52,2,7.52.42,0,1.03-1.87,1.2-2.46.4.63,1.34,2.02,2.59,2.58-1.83,5.08-3.2,5.08-3.92,5.08-2.58,0-4.17-3.53-4.41-4.11-1.37-3.04-1.4-6.06-1.37-8.15l-3.66.44.26-3.87c-.08.07-.18.12-.36.17l-2.73,15.47h-4.07l1.86-10.53c-.57.61-.82.8-1.09,1.05-.68-1.43-1.13-2.16-1.96-3.24,4.32-3.92,6.82-8.73,7.26-9.95l3.74,1.44c.13.05.28.15.24.37-.06.36-.58.41-.85.46-.76,1.39-1.56,2.65-2.43,3.92.6.17.72.27.68.51-.01.07-.08.17-.13.22l3.47-.41Z"/>
      <path class="cls-1" d="M59.91,46.35c-.82.41-2.77,1.36-4.35,1.73-.2-.95-.99-2.53-1.89-3.5,2.52-.58,6.37-2.09,9.14-4.01-.53-.8-1-1.29-1.76-2.14-1.36,1.14-2.56,1.87-3.05,2.17-.67-1.46-1.13-2.02-2.27-2.94,3.73-1.9,7.28-5.84,8.8-8.42l3.85.71c.27.05.41.19.37.41-.04.24-.25.39-.68.56-.15.19-.45.56-.57.71h5.88l1.4,1.53c-1.96,2.94-4.28,5.69-6.92,8.03h7.76l-1.92,10.88h-4.11l.14-.8h-6.69l-.14.8h-4l1-5.69ZM70.37,47.64l.5-2.85h-6.69l-.5,2.85h6.69ZM64.59,35.11c-.11.12-.15.17-.43.46.58.56,1.34,1.39,2.01,2.31,1.75-1.6,2.22-2.33,2.46-2.77h-4.04Z"/>
      <path class="cls-1" d="M79.11,50.93l-.2,1.14h-3.44l1.53-8.66h8.18l-1.49,8.44h-3.39l.16-.92h-1.35ZM85.23,40.2l-.45,2.55h-7.13l.45-2.55h7.13ZM87.12,33.43l-.51,2.89h-8.69l.51-2.89h8.69ZM85.81,36.94l-.45,2.55h-7.13l.45-2.55h7.13ZM86.99,30.22l-.45,2.53h-7.13l.45-2.53h7.13ZM80.97,48.03l.32-1.8h-1.35l-.32,1.8h1.35ZM93.8,39.23l-1.4,7.96h-3.9l-.3,1.68h-3.09l1.7-9.63h7ZM94.84,34.89l-.57,3.21h-7.41l.57-3.21h7.41ZM99.94,30.22l-3.31,18.76c-.55,3.11-3.22,3.11-4.89,3.11-.26,0-.46,0-.69-.02.09-1.58-.1-2.7-.5-4.01.77.12,1.18.17,1.6.17.6,0,.91-.03,1.05-.8l2.41-13.67h-8.46l.62-3.53h12.18ZM89.36,42.22l-.35,1.97h1.05l.35-1.97h-1.05Z"/>
      <path class="cls-1" d="M105.32,48.08c-.34,1.92-2.1,3.48-3.94,3.48s-3.05-1.56-2.71-3.48c.34-1.95,2.12-3.48,3.94-3.48s3.05,1.53,2.71,3.48ZM100.23,48.08c-.18,1.02.46,1.85,1.44,1.85s1.91-.83,2.09-1.85c.18-1.05-.46-1.85-1.44-1.85s-1.91.8-2.09,1.85Z"/>
    </g>
  </g>
</svg>