<?xml version="1.0" encoding="UTF-8"?>
<svg id="_レイヤー_2" data-name="レイヤー_2" xmlns="http://www.w3.org/2000/svg" viewBox="0 0 204.01 86.1">
  <defs>
    <style>
      .cls-1 {
        fill: #231815;
      }

      .cls-2 {
        fill: #e16a0e;
      }
    </style>
  </defs>
  <g id="_レイヤー_8" data-name="レイヤー_8">
    <g>
      <g>
        <path class="cls-2" d="M10.86,0c-.02,21.23-.05,42.55-.07,63.78,0,1.22.5,2.07,1.13,1.93.18-.04.26-.06.44-.1.63-.14,1.13-1.22,1.13-2.43.03-21.03.06-42.15.09-63.18h10.8c-.06,22.13-.11,44.36-.17,66.49.11,4.99-1.8,12.35-6.8,14.58-4.23,1.22-6.35,1.83-10.58,3.05-5.72.84-6.79-7.88-6.83-11.77V0h10.86Z"/>
        <path class="cls-2" d="M28.48,0h17.56c5.14.57,6.85,6.92,6.75,11.22-.06,9.01-.11,18.01-.17,27.02.12,4.61-2.04,11.11-6.85,12.69-2.66.54-3.99.8-6.66,1.34-.03,7.49-.06,15.07-.1,22.56-3.59,1.04-7.18,2.07-10.77,3.11.08-25.95.16-51.99.23-77.94ZM39.18,36.93c.63-.09.94-.13,1.57-.22.63-.09,1.14-1.03,1.14-2.11.03-6.04.06-12.07.08-18.11,0-1.08-.5-1.92-1.13-1.89-.63.04-.95.05-1.58.09-.03,7.42-.06,14.83-.1,22.25Z"/>
        <path class="cls-2" d="M62.9,0h10.67c4.81.38,6.82,5.82,6.72,9.98-.04,3.77-.06,5.65-.1,9.42-4.31.38-6.46.57-10.77.95.02-2.25.03-3.37.05-5.62,0-.97-.49-1.72-1.12-1.68-.18,0-.26.01-.44.02-.63.04-1.14.85-1.15,1.83-.02,2.63-.03,3.94-.05,6.57,0,.59.12,1.16.24,1.25,3.99,3.99,8.02,7.92,12.21,11.69.56.65.86,1.62.85,2.54-.06,5.6-.12,11.29-.18,16.9-.12,4.5-2.44,9.49-6.86,11.19-4.23,1.22-6.35,1.83-10.58,3.05-5.12,1.16-6.91-5.46-6.75-9.21.03-3.97.05-7.93.08-11.9,4.32-.83,6.48-1.25,10.8-2.08-.02,2.63-.03,3.94-.05,6.57,0,.98.49,1.65,1.11,1.51.18-.04.26-.06.44-.1.63-.14,1.14-1.03,1.14-2,.02-2.6.03-3.98.06-6.58,0-.58-.18-1.22-.49-1.46-4.07-3.43-8.04-6.98-11.91-10.64-.62-.73-.99-1.82-.98-3.15.04-6.26.08-12.52.12-18.78-.01-4.22,2.08-9.83,6.95-10.26Z"/>
        <path class="cls-2" d="M95.19,49.19h9.45c0,4.6.01,9.21.02,13.81h-20.73c.19-20.94.37-42.07.56-63.01h10.86c-.05,16.33-.11,32.86-.16,49.19Z"/>
        <path class="cls-2" d="M108.36,0h10.86c.18,20.94.37,42.07.55,63.01h-11.21c-.07-20.94-.14-42.07-.21-63.01Z"/>
        <path class="cls-2" d="M123.65,0h17.56c5.15.49,6.93,6.78,6.89,11.08.11,15.91.21,31.81.32,47.72.16,3.72-1.6,10.36-6.69,9.23-5.8-1.67-11.61-3.35-17.41-5.02-.22-21-.45-42-.67-63.01ZM134.62,12.99c.12,13.18.23,26.37.35,39.55.63.14.94.22,1.57.36.63.14,1.12-.53,1.11-1.51-.1-12.16-.2-24.32-.3-36.49,0-.98-.52-1.79-1.15-1.83-.63-.04-.95-.05-1.58-.09Z"/>
        <path class="cls-2" d="M152.56,71.16c-.14-23.72-.29-47.44-.43-71.16h23.68c.02,5.71.03,11.43.05,17.14-4.27-.27-8.53-.54-12.8-.81.02,4.21.04,8.42.06,12.63,4.36.49,6.53.73,10.89,1.22.02,5.67.04,11.35.05,17.02-4.35-.76-6.52-1.14-10.87-1.91.02,4.21.04,8.42.06,12.63,4.25.95,8.49,1.91,12.74,2.86.02,5.71.03,11.43.05,17.14-7.83-2.26-15.66-4.52-23.49-6.78Z"/>
        <path class="cls-2" d="M179.6,0h17.56c5.76.64,7,9.1,6.82,13.62v15.64c.12,3.58.24,11.7-4.53,12.6,0,.4,0,.6,0,.99,4.62,1.85,4.65,9.74,4.53,13.77v29.38c-4.28-1.24-6.42-1.85-10.71-3.09-.01-9.85-.02-19.69-.03-29.54,0-1.22-.51-2.28-1.13-2.39-.18-.03-.26-.05-.44-.08-.63-.11-1.13.76-1.13,1.97.01,9.75.03,19.51.04,29.26-3.59-1.04-7.18-2.07-10.77-3.11-.07-26.34-.13-52.68-.2-79.02ZM192.08,30.88c.63.07,1.13-.85,1.13-2.07,0-4.13,0-6.2-.01-10.33,0-1.22-.51-2.22-1.14-2.25-.63-.04-.95-.05-1.58-.09,0,4.86.01,9.71.02,14.57.63.07.94.1,1.57.17Z"/>
      </g>
      <g>
        <path class="cls-1" d="M53.78,80.3h1.25v2.26h2.31v-2.26h1.25v5.7h-1.25v-2.29h-2.31v2.29h-1.25v-5.7Z"/>
        <path class="cls-1" d="M61.77,80.26h1.16l2.44,5.74h-1.31l-.52-1.28h-2.41l-.52,1.28h-1.28l2.44-5.74ZM63.08,83.61l-.76-1.85-.76,1.85h1.52Z"/>
        <path class="cls-1" d="M65.69,85.17l.74-.89c.51.42,1.05.69,1.7.69.51,0,.82-.2.82-.54v-.02c0-.32-.2-.48-1.15-.72-1.15-.29-1.89-.61-1.89-1.74v-.02c0-1.03.83-1.72,2-1.72.83,0,1.54.26,2.12.72l-.65.94c-.51-.35-1-.56-1.48-.56s-.73.22-.73.5v.02c0,.37.24.5,1.23.75,1.16.3,1.81.72,1.81,1.71v.02c0,1.13-.86,1.77-2.09,1.77-.86,0-1.73-.3-2.42-.91Z"/>
        <path class="cls-1" d="M71.13,80.3h4.3v1.12h-3.05v1.16h2.69v1.12h-2.69v1.2h3.1v1.12h-4.34v-5.7Z"/>
        <path class="cls-1" d="M76.18,83.17v-.02c0-1.62,1.26-2.95,2.99-2.95,1.03,0,1.65.28,2.24.78l-.79.95c-.44-.37-.83-.58-1.49-.58-.91,0-1.64.81-1.64,1.78v.02c0,1.04.72,1.81,1.73,1.81.46,0,.86-.11,1.18-.34v-.81h-1.26v-1.08h2.48v2.48c-.59.5-1.39.9-2.44.9-1.78,0-3-1.25-3-2.93Z"/>
        <path class="cls-1" d="M84.61,80.26h1.16l2.44,5.74h-1.31l-.52-1.28h-2.41l-.52,1.28h-1.28l2.44-5.74ZM85.93,83.61l-.76-1.85-.76,1.85h1.52Z"/>
        <path class="cls-1" d="M87.67,80.3h1.34l1.18,3.86,1.28-3.88h1.08l1.28,3.88,1.18-3.86h1.31l-1.95,5.74h-1.09l-1.29-3.73-1.29,3.73h-1.09l-1.95-5.74Z"/>
        <path class="cls-1" d="M98.23,80.26h1.16l2.44,5.74h-1.31l-.52-1.28h-2.41l-.52,1.28h-1.28l2.44-5.74ZM99.55,83.61l-.76-1.85-.76,1.85h1.52Z"/>
        <path class="cls-1" d="M104.57,83.17v-.02c0-1.62,1.28-2.95,3.04-2.95s3.02,1.31,3.02,2.93v.02c0,1.62-1.28,2.95-3.04,2.95s-3.02-1.31-3.02-2.93ZM109.32,83.17v-.02c0-.98-.72-1.79-1.73-1.79s-1.71.8-1.71,1.78v.02c0,.98.72,1.79,1.73,1.79s1.71-.8,1.71-1.78Z"/>
        <path class="cls-1" d="M111.59,80.3h2.61c.73,0,1.29.2,1.66.58.32.32.49.77.49,1.3v.02c0,.92-.5,1.5-1.22,1.77l1.39,2.04h-1.47l-1.22-1.82h-.99v1.82h-1.25v-5.7ZM114.11,83.07c.61,0,.96-.33.96-.81v-.02c0-.54-.37-.81-.99-.81h-1.25v1.64h1.27Z"/>
        <path class="cls-1" d="M117.37,80.3h1.25v5.7h-1.25v-5.7Z"/>
        <path class="cls-1" d="M119.63,83.17v-.02c0-1.62,1.26-2.95,2.99-2.95,1.03,0,1.65.28,2.24.78l-.79.95c-.44-.37-.83-.58-1.49-.58-.91,0-1.64.81-1.64,1.78v.02c0,1.04.72,1.81,1.73,1.81.46,0,.86-.11,1.18-.34v-.81h-1.26v-1.08h2.48v2.48c-.59.5-1.39.9-2.44.9-1.78,0-3-1.25-3-2.93Z"/>
        <path class="cls-1" d="M126.17,80.3h1.25v5.7h-1.25v-5.7Z"/>
        <path class="cls-1" d="M128.68,80.3h1.16l2.67,3.51v-3.51h1.24v5.7h-1.07l-2.76-3.62v3.62h-1.24v-5.7Z"/>
        <path class="cls-1" d="M136.91,80.26h1.16l2.44,5.74h-1.31l-.52-1.28h-2.41l-.52,1.28h-1.28l2.44-5.74ZM138.23,83.61l-.76-1.85-.76,1.85h1.52Z"/>
        <path class="cls-1" d="M141.23,80.3h1.25v4.56h2.84v1.14h-4.1v-5.7Z"/>
        <path class="cls-1" d="M145.72,85.17l.74-.89c.51.42,1.05.69,1.7.69.51,0,.82-.2.82-.54v-.02c0-.32-.2-.48-1.15-.72-1.15-.29-1.89-.61-1.89-1.74v-.02c0-1.03.83-1.72,2-1.72.83,0,1.54.26,2.12.72l-.65.94c-.51-.35-1-.56-1.48-.56s-.73.22-.73.5v.02c0,.37.24.5,1.23.75,1.16.3,1.81.72,1.81,1.71v.02c0,1.13-.86,1.77-2.09,1.77-.86,0-1.73-.3-2.42-.91Z"/>
      </g>
    </g>
  </g>
</svg>