<?xml version="1.0" encoding="UTF-8"?>
<svg id="_レイヤー_2" data-name="レイヤー_2" xmlns="http://www.w3.org/2000/svg" viewBox="0 0 733.5 309.56">
  <defs>
    <style>
      .cls-1 {
        fill: #231815;
      }

      .cls-2 {
        fill: #e16a0e;
      }
    </style>
  </defs>
  <g id="_レイヤー_8" data-name="レイヤー_8">
    <g>
      <g>
        <path class="cls-2" d="M39.05,0c-.08,76.32-.17,152.99-.25,229.31,0,4.37,1.8,7.46,4.05,6.94.63-.14.95-.22,1.58-.36,2.25-.52,4.06-4.39,4.07-8.72.1-75.61.21-151.56.31-227.16h38.83c-.2,79.57-.4,159.48-.61,239.05.41,17.93-6.49,44.4-24.44,52.42-15.22,4.39-22.83,6.58-38.05,10.97C3.99,305.46.13,274.09,0,260.1V0h39.05Z"/>
        <path class="cls-2" d="M102.39,0h63.12c18.5,2.04,24.63,24.89,24.28,40.35-.2,32.38-.4,64.77-.6,97.15.42,16.59-7.32,39.94-24.63,45.64-9.57,1.93-14.36,2.89-23.93,4.81-.12,26.92-.23,54.17-.35,81.09-12.91,3.72-25.82,7.45-38.73,11.17.28-93.3.56-186.92.84-280.22ZM140.87,132.79c2.26-.32,3.39-.48,5.65-.8,2.26-.32,4.08-3.7,4.1-7.6.1-21.71.2-43.41.3-65.12.02-3.9-1.78-6.92-4.05-6.79-2.27.13-3.4.19-5.67.32-.12,26.66-.23,53.33-.35,79.99Z"/>
        <path class="cls-2" d="M226.13,0h38.37c17.29,1.37,24.52,20.93,24.15,35.87-.14,13.55-.21,20.33-.36,33.88-15.49,1.37-23.24,2.05-38.73,3.42.07-8.08.11-12.13.18-20.21.03-3.49-1.76-6.17-4.03-6.04-.64.04-.95.05-1.59.09-2.27.13-4.1,3.05-4.13,6.57-.08,9.45-.12,14.17-.19,23.62-.02,2.11.42,4.19.87,4.49,14.34,14.33,28.83,28.46,43.9,42.03,2.01,2.35,3.1,5.82,3.06,9.14-.21,20.15-.43,40.6-.64,60.75-.43,16.17-8.78,34.11-24.67,40.22-15.22,4.39-22.83,6.58-38.05,10.97-18.42,4.18-24.84-19.62-24.28-33.13.09-14.26.19-28.53.28-42.79,15.54-2.99,23.3-4.49,38.84-7.48-.08,9.45-.12,14.17-.19,23.62-.03,3.53,1.75,5.93,4.01,5.42.63-.14.95-.22,1.58-.36,2.25-.52,4.08-3.72,4.11-7.2.08-9.34.12-14.3.2-23.64.02-2.09-.64-4.4-1.76-5.24-14.65-12.33-28.92-25.11-42.82-38.27-2.24-2.64-3.57-6.53-3.54-11.32.15-22.5.3-45.01.44-67.51-.05-15.16,7.47-35.33,24.99-36.89Z"/>
        <path class="cls-2" d="M342.25,176.86h33.98c.02,16.56.04,33.11.07,49.67h-74.52c.67-75.28,1.34-151.25,2.01-226.53h39.06c-.2,58.72-.4,118.14-.59,176.86Z"/>
        <path class="cls-2" d="M389.61,0h39.06c.66,75.28,1.33,151.25,1.99,226.53h-40.31c-.25-75.28-.49-151.25-.74-226.53Z"/>
        <path class="cls-2" d="M444.56,0h63.12c18.51,1.77,24.93,24.37,24.79,39.84.38,57.19.76,114.37,1.14,171.56.57,13.37-5.75,37.25-24.05,33.19-20.86-6.02-41.73-12.04-62.59-18.06-.8-75.51-1.6-151.02-2.4-226.53ZM484.02,46.7c.41,47.4.83,94.81,1.24,142.21,2.26.52,3.38.77,5.64,1.29,2.25.52,4.04-1.89,4.01-5.42-.36-43.73-.72-87.46-1.09-131.18-.03-3.53-1.87-6.45-4.13-6.58-2.27-.13-3.4-.19-5.67-.32Z"/>
        <path class="cls-2" d="M548.51,255.83c-.52-85.28-1.03-170.55-1.55-255.83h85.15c.06,20.54.12,41.08.18,61.62-15.34-.97-30.67-1.93-46.01-2.9.07,15.14.14,30.28.21,45.41,15.66,1.75,23.49,2.63,39.15,4.38.07,20.4.13,40.8.2,61.2-15.63-2.74-23.45-4.11-39.08-6.86.07,15.14.14,30.28.21,45.42,15.26,3.43,30.53,6.86,45.79,10.29.06,20.54.12,41.08.18,61.62-28.15-8.12-56.29-16.25-84.44-24.37Z"/>
        <path class="cls-2" d="M645.72,0h63.12c20.7,2.3,25.16,32.71,24.52,48.96v56.21c.44,12.87.87,42.05-16.28,45.29,0,1.43,0,2.14,0,3.57,16.6,6.63,16.72,35.03,16.28,49.52v105.63c-15.4-4.44-23.1-6.67-38.5-11.11-.04-35.4-.08-70.8-.12-106.2,0-4.37-1.82-8.19-4.07-8.59-.63-.11-.95-.17-1.58-.28-2.26-.4-4.06,2.74-4.06,7.07.05,35.07.1,70.14.14,105.21-12.91-3.73-25.82-7.45-38.73-11.18-.24-94.7-.48-189.4-.73-284.1ZM690.59,111.01c2.26.24,4.07-3.06,4.07-7.43-.02-14.86-.02-22.29-.04-37.15,0-4.37-1.82-7.97-4.09-8.1-2.27-.13-3.4-.19-5.67-.32.02,17.46.05,34.92.07,52.39,2.26.24,3.4.36,5.66.61Z"/>
      </g>
      <g>
        <path class="cls-1" d="M193.37,288.7h4.51v8.11h8.32v-8.11h4.51v20.5h-4.51v-8.23h-8.32v8.23h-4.51v-20.5Z"/>
        <path class="cls-1" d="M222.07,288.56h4.16l8.79,20.65h-4.72l-1.87-4.6h-8.67l-1.87,4.6h-4.6l8.79-20.65ZM226.81,300.62l-2.72-6.65-2.72,6.65h5.45Z"/>
        <path class="cls-1" d="M236.19,306.22l2.67-3.19c1.85,1.52,3.78,2.49,6.12,2.49,1.84,0,2.96-.73,2.96-1.93v-.06c0-1.14-.7-1.73-4.13-2.61-4.13-1.05-6.79-2.2-6.79-6.27v-.06c0-3.72,2.99-6.18,7.18-6.18,2.99,0,5.54.94,7.61,2.61l-2.34,3.4c-1.82-1.26-3.6-2.02-5.33-2.02s-2.64.79-2.64,1.79v.06c0,1.35.88,1.79,4.42,2.69,4.16,1.08,6.5,2.58,6.5,6.15v.06c0,4.07-3.1,6.35-7.53,6.35-3.1,0-6.24-1.08-8.7-3.28Z"/>
        <path class="cls-1" d="M255.75,288.7h15.46v4.01h-10.98v4.16h9.67v4.01h-9.67v4.3h11.13v4.01h-15.61v-20.5Z"/>
        <path class="cls-1" d="M273.88,299.01v-.06c0-5.83,4.54-10.6,10.75-10.6,3.69,0,5.92,1,8.05,2.81l-2.84,3.43c-1.58-1.32-2.99-2.08-5.36-2.08-3.28,0-5.89,2.9-5.89,6.38v.06c0,3.75,2.58,6.5,6.21,6.5,1.64,0,3.1-.41,4.25-1.23v-2.93h-4.54v-3.9h8.9v8.9c-2.11,1.79-5.01,3.25-8.76,3.25-6.38,0-10.78-4.48-10.78-10.54Z"/>
        <path class="cls-1" d="M304.19,288.56h4.16l8.79,20.65h-4.72l-1.87-4.6h-8.67l-1.87,4.6h-4.6l8.79-20.65ZM308.94,300.62l-2.72-6.65-2.72,6.65h5.45Z"/>
        <path class="cls-1" d="M315.21,288.7h4.83l4.25,13.88,4.6-13.94h3.87l4.6,13.94,4.25-13.88h4.72l-7,20.65h-3.93l-4.63-13.41-4.63,13.41h-3.93l-7-20.65Z"/>
        <path class="cls-1" d="M353.16,288.56h4.16l8.79,20.65h-4.71l-1.87-4.6h-8.67l-1.87,4.6h-4.6l8.79-20.65ZM357.91,300.62l-2.72-6.65-2.72,6.65h5.45Z"/>
        <path class="cls-1" d="M375.98,299.01v-.06c0-5.83,4.6-10.6,10.92-10.6s10.86,4.71,10.86,10.54v.06c0,5.83-4.6,10.6-10.92,10.6s-10.87-4.71-10.87-10.54ZM393.05,299.01v-.06c0-3.51-2.58-6.44-6.21-6.44s-6.15,2.87-6.15,6.38v.06c0,3.51,2.58,6.44,6.21,6.44s6.15-2.87,6.15-6.38Z"/>
        <path class="cls-1" d="M401.19,288.7h9.37c2.61,0,4.63.73,5.97,2.08,1.14,1.14,1.76,2.75,1.76,4.69v.06c0,3.31-1.79,5.39-4.39,6.35l5.01,7.32h-5.27l-4.39-6.56h-3.54v6.56h-4.51v-20.5ZM410.27,298.66c2.2,0,3.46-1.17,3.46-2.9v-.06c0-1.93-1.35-2.93-3.54-2.93h-4.48v5.89h4.57Z"/>
        <path class="cls-1" d="M421.99,288.7h4.51v20.5h-4.51v-20.5Z"/>
        <path class="cls-1" d="M430.13,299.01v-.06c0-5.83,4.54-10.6,10.75-10.6,3.69,0,5.92,1,8.05,2.81l-2.84,3.43c-1.58-1.32-2.99-2.08-5.36-2.08-3.28,0-5.89,2.9-5.89,6.38v.06c0,3.75,2.58,6.5,6.21,6.5,1.64,0,3.1-.41,4.25-1.23v-2.93h-4.54v-3.9h8.9v8.9c-2.11,1.79-5.01,3.25-8.76,3.25-6.39,0-10.78-4.48-10.78-10.54Z"/>
        <path class="cls-1" d="M453.62,288.7h4.51v20.5h-4.51v-20.5Z"/>
        <path class="cls-1" d="M462.67,288.7h4.16l9.61,12.62v-12.62h4.45v20.5h-3.84l-9.93-13.03v13.03h-4.45v-20.5Z"/>
        <path class="cls-1" d="M492.25,288.56h4.16l8.79,20.65h-4.72l-1.87-4.6h-8.67l-1.87,4.6h-4.6l8.79-20.65ZM496.99,300.62l-2.72-6.65-2.72,6.65h5.45Z"/>
        <path class="cls-1" d="M507.77,288.7h4.51v16.4h10.22v4.1h-14.73v-20.5Z"/>
        <path class="cls-1" d="M523.91,306.22l2.66-3.19c1.85,1.52,3.78,2.49,6.12,2.49,1.85,0,2.96-.73,2.96-1.93v-.06c0-1.14-.7-1.73-4.13-2.61-4.13-1.05-6.8-2.2-6.8-6.27v-.06c0-3.72,2.99-6.18,7.18-6.18,2.99,0,5.54.94,7.61,2.61l-2.34,3.4c-1.82-1.26-3.6-2.02-5.33-2.02s-2.64.79-2.64,1.79v.06c0,1.35.88,1.79,4.42,2.69,4.16,1.08,6.5,2.58,6.5,6.15v.06c0,4.07-3.1,6.35-7.53,6.35-3.1,0-6.24-1.08-8.7-3.28Z"/>
      </g>
    </g>
  </g>
</svg>