<?xml version="1.0" encoding="UTF-8"?>
<svg xmlns="http://www.w3.org/2000/svg" xmlns:xlink="http://www.w3.org/1999/xlink" viewBox="0 0 694.22 364.63">
  <defs>
    <style>
      .cls-1 {
        fill: none;
      }

      .cls-2 {
        isolation: isolate;
      }

      .cls-3 {
        fill: #231815;
        mix-blend-mode: multiply;
        opacity: .9;
      }

      .cls-4 {
        fill: #fff;
      }

      .cls-5 {
        clip-path: url(#clippath);
      }
    </style>
    <clipPath id="clippath">
      <rect class="cls-1" width="694.22" height="364.63"/>
    </clipPath>
  </defs>
  <g class="cls-2">
    <g id="_レイヤー_2" data-name="レイヤー_2">
      <g id="_レイヤー_8" data-name="レイヤー_8">
        <g class="cls-5">
          <polygon class="cls-3" points="1341.23 129.52 444.62 287.61 -115.74 386.42 -142.03 237.32 1314.94 -19.58 1341.23 129.52"/>
          <g>
            <g>
              <path class="cls-4" d="M375.01,196.25c2.96-.72,4.25-2.93,5.42-9.47l2.73-17.71,7.1-1.25-3,18.67c-.86,5.74-2.03,9.35-3.82,11.96-1.95,2.68-4.88,4.66-8.43,5.69v-7.89ZM403.17,165.53c3.35,10.46,5.46,19.6,7.29,31.67l-7.65,1.35c-.94-9.42-4.41-25.17-6.98-31.73l7.33-1.29Z"/>
              <path class="cls-4" d="M412.34,169.19l6.67-1.18v-6.46l6.67-1.18v6.46l19.04-3.36v7.65c.23,6.06-3.28,9.93-10.22,11.31l-4.29.76v-6.42l3.94-.69c2.69-.52,3.55-1.54,3.59-4.12v-1.07l-12.05,2.13v12.2c0,2.26.74,2.84,3.08,2.39l16.11-2.84v6.42l-16.74,2.95c-5.81,1.14-9.09-1.13-9.13-6.39v-13.55l-6.67,1.18v-6.18Z"/>
              <path class="cls-4" d="M451.01,169.85v-6.42l8.58-1.51v-7.09l6.79-1.2v7.09l15.25-2.69v12.6c-.04,7.06-.62,9.85-2.54,12.17-1.64,2.07-4.64,3.55-8.7,4.27l-4.17.74v-6.3l2.77-.49c4.64-.94,5.77-2.48,5.81-8.08v-7.29l-8.74,1.54c-.55,8.1-1.4,11.69-3.78,15.52-2.89,4.43-6.59,7.03-12.33,8.59v-6.61c3.39-.96,5.73-2.79,7.45-5.75,1.4-2.58,1.64-3.93,2.03-10.58l-8.43,1.49ZM473.36,151.14l3.67-.65v6.02l-3.67.65v-6.02ZM478.16,150.29l3.63-.64v6.02l-3.63.64v-6.02Z"/>
              <path class="cls-4" d="M519.45,145.27v11.05c-.04,9-1.01,13.29-3.82,16.95-3.04,4.1-8.19,6.91-14.59,8l-12.33,2.17v-6.81l12.48-2.2c8.5-1.7,11.12-5.21,11-14.73v-6.69l-18.37,3.24v10.14l-6.79,1.2v-16.6l32.42-5.72Z"/>
            </g>
            <g>
              <path class="cls-4" d="M276.17,276.3c4.62-.82,7.17-1.42,8.78-2.18,3.74-1.82,5.61-4.84,5.4-8.6v-8.55l10.96-1.93c4.73-.94,6.18-2.83,6.18-7.74l-31.64,5.58v-11.08l44.89-7.92c-.05,11.51-.62,16.68-2.13,20.53-2.65,6.27-7.74,9.86-16.47,11.45-.1,5.14-.62,7.71-2.13,10.51-2.39,4.48-6.29,7.23-12.99,9.31-2.55.77-5.82,1.56-9.04,2.12-.26.05-1.04.18-1.82.27v-11.77Z"/>
              <path class="cls-4" d="M329.1,257.1c-1.4-7.72-2.08-10.98-3.79-17.74l11.54-2.03c1.14,3.97,1.82,6.91,3.95,17.72l-11.69,2.06ZM327.9,266.44l14.86-2.62c9.35-1.7,12.47-4.26,12.42-10.21v-19.89l12-2.12v16.51c.05,10.02-1.45,15.13-5.56,19.34-3.85,3.79-8.78,5.61-20.84,7.79l-12.89,2.27v-11.08ZM350.51,234.91c1.66,6.14,2.65,10.82,3.85,17.73l-11.33,2c-.94-5.58-2.29-11.84-3.9-17.73l11.38-2.01Z"/>
              <path class="cls-4" d="M373.45,224.85l32.79-5.78c-.47,1.77-.57,2.64-.57,3.74,0,4.59,3.53,7.5,8.1,6.69.83-.15,1.61-.39,3.12-1.02-.47,15.54-.94,18.15-4.47,24.58-5.04,7.96-10.81,11.09-25.15,13.46l-10.55,1.86v-11.98l9.98-1.76c5.25-.93,7.17-1.48,9.3-2.64,2.96-1.58,5.46-4.29,6.39-6.93.57-1.63,1.09-7,1.09-11.69,0-.32,0-.84-.05-1.68l-29.98,5.29v-12.14ZM420.79,219.83c0,3.9-3.06,7.56-6.86,8.23-3.84.68-6.91-1.89-6.91-5.85s3.12-7.46,7.01-8.15c3.69-.65,6.75,1.97,6.75,5.77ZM411.28,221.51c0,1.48,1.19,2.48,2.65,2.22,1.45-.26,2.65-1.68,2.65-3.16s-1.2-2.48-2.7-2.21c-1.4.25-2.6,1.67-2.6,3.15Z"/>
              <path class="cls-4" d="M422.6,249.64c9.51-1.68,12.31-2.96,15.59-7.08,4.21-5.44,6.7-10.73,9.09-19.33l-22.29,3.93v-11.92l39.59-6.98c-2.18,9.3-3.79,14.54-7.33,24.14,4.78,5.8,9.46,13,12.78,19.64l-14.5,2.56c-1.4-3.13-1.66-3.56-5.04-8.87-3.33,4.7-4.26,5.87-5.82,7.36-4.26,3.97-9.61,6.07-19.9,7.89l-2.18.38v-11.71Z"/>
              <path class="cls-4" d="M473.42,219.25l42.81-7.55c.05,14.24-.42,18.59-2.49,23.44-2.75,6.5-11.17,12-20.78,13.64l-17.82,3.14v-11.5l14.5-2.56c10.55-2.07,14.03-5.22,13.87-12.68l-30.09,5.3v-11.24ZM475.14,205.6l38.87-6.85v10.92l-38.87,6.85v-10.92Z"/>
              <path class="cls-4" d="M520.79,217.18l27.28-16.31c4.73-2.79,5.25-3.67,5.61-9.11l12.83-2.26c-.47,11.9-1.66,13.59-15.43,22.08v27.54l-12.68,2.24v-22.21l-17.61,10.33v-12.29Z"/>
              <path class="cls-4" d="M581.46,209.86c-2.96,3.9-7.95,7-13.51,8.45v-12.14c5.09-2.59,6.44-5.67,7.17-16.83l24.84-4.38v6.07l11.9-2.1v12.93c.21,18.9-6.34,27.02-24.42,30.21l-16.11,2.84v-11.82l16.78-2.96c6.03-1.12,10.13-4.06,10.34-7.42l-16.99,3v-5.86ZM599.13,201.94v-5.38l-12.94,2.28c-.52,2.41-.83,3.52-1.72,5.68l14.65-2.58ZM601.52,181.05l5.82-1.03v8.34l-5.82,1.03v-8.34ZM608.9,179.75l5.87-1.04v8.34l-5.87,1.04v-8.34Z"/>
              <path class="cls-4" d="M616.87,197.76l36.87-6.5v11.92l-36.87,6.5v-11.92Z"/>
            </g>
          </g>
        </g>
      </g>
    </g>
  </g>
</svg>