<?xml version="1.0" encoding="UTF-8"?>
<svg id="_レイヤー_2" data-name="レイヤー 2" xmlns="http://www.w3.org/2000/svg" viewBox="0 0 251.31 73.83">
  <defs>
    <style>
      .cls-1 {
        fill: #fff;
      }
    </style>
  </defs>
  <g id="_画像" data-name="画像">
    <g>
      <path class="cls-1" d="M0,.61h15.6c5.71,0,9.89,1.33,13.46,5.1,3.57,3.77,4.69,8.36,4.69,17.03,0,6.32-.51,10.61-2.96,14.58-2.85,4.69-7.44,7.55-15.09,7.55h-5.3v28.35H0V.61ZM10.4,35.08h5c8.46,0,8.57-5,8.57-12.24,0-6.83,0-12.44-8.16-12.44h-5.4v24.68Z"/>
      <path class="cls-1" d="M41.5.61h16.72c12.34,0,18.36,7.24,18.36,21.31,0,8.36-2.35,14.48-8.97,18.15l11.22,33.14h-11.01l-9.69-31h-6.22v31h-10.4V.61ZM51.9,33.04h5.91c7.24,0,8.36-4.08,8.36-11.32s-1.22-11.32-8.87-11.32h-5.4v22.64Z"/>
      <path class="cls-1" d="M84.33,17.74c0-11.83,8.97-17.74,17.44-17.74s17.44,5.91,17.44,17.74v38.34c0,11.83-8.97,17.74-17.44,17.74s-17.44-5.91-17.44-17.74V17.74ZM94.73,56.09c0,5,3.26,7.34,7.04,7.34s7.04-2.35,7.04-7.34V17.74c0-5-3.26-7.34-7.04-7.34s-7.04,2.35-7.04,7.34v38.34Z"/>
      <path class="cls-1" d="M154.29,29.9h-5.57v-1.26c0-2.57-1.09-4.7-3.93-4.7-3.06,0-3.77,2.46-3.77,5.03,0,3,.27,4.04,3.17,5.19l4.26,1.69c4.92,1.86,5.85,4.97,5.85,10.65,0,6.56-2.4,11.42-9.61,11.42-5.41,0-9.5-3.99-9.5-9.23v-2.08h5.57v1.75c0,2.02,1.09,3.99,3.93,3.99,3.77,0,4.04-2.24,4.04-5.79,0-4.15-.49-4.81-3.22-5.9l-3.99-1.64c-4.81-1.97-6.06-5.13-6.06-10,0-5.9,3.17-10.65,9.56-10.65,5.57,0,9.29,4.48,9.29,8.79v2.73Z"/>
      <path class="cls-1" d="M158.44,18.7h16.61v5.24h-11.03v11.42h9.61v5.24h-9.61v11.42h11.03v5.57h-16.61V18.7Z"/>
      <path class="cls-1" d="M178.66,18.7h8.96c6.61,0,9.83,3.88,9.83,11.42,0,4.48-1.26,7.76-4.81,9.72l6.01,17.75h-5.9l-5.19-16.61h-3.33v16.61h-5.57V18.7ZM184.23,36.07h3.17c3.88,0,4.48-2.19,4.48-6.06s-.66-6.06-4.75-6.06h-2.9v12.13Z"/>
      <path class="cls-1" d="M202.09,18.7h5.57v38.89h-5.57V18.7Z"/>
      <path class="cls-1" d="M213.07,18.7h16.61v5.24h-11.03v11.42h9.61v5.24h-9.61v11.42h11.03v5.57h-16.61V18.7Z"/>
      <path class="cls-1" d="M251.31,29.9h-5.57v-1.26c0-2.57-1.09-4.7-3.93-4.7-3.06,0-3.77,2.46-3.77,5.03,0,3,.27,4.04,3.17,5.19l4.26,1.69c4.92,1.86,5.85,4.97,5.85,10.65,0,6.56-2.4,11.42-9.61,11.42-5.41,0-9.5-3.99-9.5-9.23v-2.08h5.57v1.75c0,2.02,1.09,3.99,3.93,3.99,3.77,0,4.04-2.24,4.04-5.79,0-4.15-.49-4.81-3.22-5.9l-3.99-1.64c-4.81-1.97-6.06-5.13-6.06-10,0-5.9,3.17-10.65,9.56-10.65,5.57,0,9.29,4.48,9.29,8.79v2.73Z"/>
    </g>
  </g>
</svg>