<?xml version="1.0" encoding="UTF-8"?>
<svg id="_レイヤー_2" data-name="レイヤー 2" xmlns="http://www.w3.org/2000/svg" viewBox="0 0 451.98 73.83">
  <defs>
    <style>
      .cls-1 {
        fill: #fff;
      }
    </style>
  </defs>
  <g id="_画像" data-name="画像">
    <g>
      <path class="cls-1" d="M35.69,21.52h-10.4v-2.34c0-4.79-2.04-8.77-7.34-8.77-5.71,0-7.04,4.59-7.04,9.38,0,5.61.51,7.54,5.91,9.69l7.95,3.16c9.18,3.47,10.91,9.28,10.91,19.89,0,12.24-4.49,21.31-17.95,21.31-10.1,0-17.74-7.44-17.74-17.23v-3.88h10.4v3.26c0,3.77,2.04,7.44,7.34,7.44,7.04,0,7.55-4.18,7.55-10.81,0-7.75-.92-8.97-6.02-11.01l-7.44-3.06C2.85,34.88.51,28.96.51,19.88.51,8.87,6.42,0,18.36,0c10.4,0,17.34,8.36,17.34,16.42v5.1Z"/>
      <path class="cls-1" d="M50.27,10.4h-12.03V.61h34.47v9.79h-12.03v62.82h-10.4V10.4Z"/>
      <path class="cls-1" d="M83.21.61h8.67l16.21,72.61h-10.4l-3.06-15.6h-14.17l-3.06,15.6h-10.4L83.21.61ZM87.59,21.52h-.2l-5.1,26.31h10.4l-5.1-26.31Z"/>
      <path class="cls-1" d="M112.78.61h9.99l15.7,43.75h.2V.61h10.4v72.61h-9.79l-15.91-43.64h-.2v43.64h-10.4V.61Z"/>
      <path class="cls-1" d="M158.46.61h15.4c11.73,0,18.25,7.04,18.25,18.76v33.96c0,13.46-6.93,19.88-19.17,19.88h-14.48V.61ZM168.86,63.43h4.79c5.81,0,8.06-2.86,8.06-9.08V19.38c0-5.71-1.94-8.97-8.06-8.97h-4.79v53.03Z"/>
      <path class="cls-1" d="M212.2.61h8.67l16.21,72.61h-10.4l-3.06-15.6h-14.17l-3.06,15.6h-10.4L212.2.61ZM216.58,21.52h-.2l-5.1,26.31h10.4l-5.1-26.31Z"/>
      <path class="cls-1" d="M242.17.61h16.72c12.34,0,18.36,7.24,18.36,21.31,0,8.36-2.35,14.48-8.97,18.15l11.22,33.14h-11.01l-9.69-31h-6.22v31h-10.4V.61ZM252.58,33.04h5.91c7.24,0,8.36-4.08,8.36-11.32s-1.22-11.32-8.87-11.32h-5.4v22.64Z"/>
      <path class="cls-1" d="M285.61.61h15.4c11.73,0,18.25,7.04,18.25,18.76v33.96c0,13.46-6.93,19.88-19.17,19.88h-14.48V.61ZM296.01,63.43h4.79c5.81,0,8.06-2.86,8.06-9.08V19.38c0-5.71-1.94-8.97-8.06-8.97h-4.79v53.03Z"/>
      <path class="cls-1" d="M354.97,29.9h-5.57v-1.26c0-2.57-1.09-4.7-3.93-4.7-3.06,0-3.77,2.46-3.77,5.03,0,3,.27,4.04,3.17,5.19l4.26,1.69c4.92,1.86,5.85,4.97,5.85,10.65,0,6.56-2.4,11.42-9.61,11.42-5.41,0-9.51-3.99-9.51-9.23v-2.08h5.57v1.75c0,2.02,1.09,3.99,3.93,3.99,3.77,0,4.04-2.24,4.04-5.79,0-4.15-.49-4.81-3.22-5.9l-3.99-1.64c-4.81-1.97-6.06-5.13-6.06-10,0-5.9,3.17-10.65,9.56-10.65,5.57,0,9.29,4.48,9.29,8.79v2.73Z"/>
      <path class="cls-1" d="M359.12,18.7h16.61v5.24h-11.03v11.42h9.61v5.24h-9.61v11.42h11.03v5.57h-16.61V18.7Z"/>
      <path class="cls-1" d="M379.33,18.7h8.96c6.61,0,9.83,3.88,9.83,11.42,0,4.48-1.26,7.76-4.81,9.72l6.01,17.75h-5.9l-5.19-16.61h-3.33v16.61h-5.57V18.7ZM384.9,36.07h3.17c3.88,0,4.48-2.18,4.48-6.06s-.66-6.06-4.75-6.06h-2.9v12.13Z"/>
      <path class="cls-1" d="M402.76,18.7h5.57v38.89h-5.57V18.7Z"/>
      <path class="cls-1" d="M413.74,18.7h16.61v5.24h-11.03v11.42h9.61v5.24h-9.61v11.42h11.03v5.57h-16.61V18.7Z"/>
      <path class="cls-1" d="M451.98,29.9h-5.57v-1.26c0-2.57-1.09-4.7-3.93-4.7-3.06,0-3.77,2.46-3.77,5.03,0,3,.27,4.04,3.17,5.19l4.26,1.69c4.92,1.86,5.85,4.97,5.85,10.65,0,6.56-2.4,11.42-9.61,11.42-5.41,0-9.51-3.99-9.51-9.23v-2.08h5.57v1.75c0,2.02,1.09,3.99,3.93,3.99,3.77,0,4.04-2.24,4.04-5.79,0-4.15-.49-4.81-3.22-5.9l-3.99-1.64c-4.81-1.97-6.06-5.13-6.06-10,0-5.9,3.17-10.65,9.56-10.65,5.57,0,9.29,4.48,9.29,8.79v2.73Z"/>
    </g>
  </g>
</svg>