<?xml version="1.0" encoding="UTF-8"?>
<svg id="_レイヤー_2" data-name="レイヤー 2" xmlns="http://www.w3.org/2000/svg" viewBox="0 0 334.51 73.83">
  <defs>
    <style>
      .cls-1 {
        fill: #fff;
      }
    </style>
  </defs>
  <g id="_画像" data-name="画像">
    <g>
      <path class="cls-1" d="M12.03,10.4H0V.61h34.47v9.79h-12.03v62.82h-10.4V10.4Z"/>
      <path class="cls-1" d="M37.22,17.74C37.22,5.91,46.19,0,54.66,0s17.44,5.91,17.44,17.74v38.34c0,11.83-8.97,17.74-17.44,17.74s-17.44-5.91-17.44-17.74V17.74ZM47.62,56.09c0,5,3.26,7.34,7.04,7.34s7.04-2.35,7.04-7.34V17.74c0-5-3.26-7.34-7.04-7.34s-7.04,2.35-7.04,7.34v38.34Z"/>
      <path class="cls-1" d="M114.92,56.9c0,9.48-7.55,16.93-16.83,16.93s-16.83-7.44-16.83-16.93V.61h10.4v55.27c0,5.1,2.75,7.55,6.42,7.55s6.42-2.45,6.42-7.55V.61h10.4v56.29Z"/>
      <path class="cls-1" d="M124.1,17.74c0-11.83,8.97-17.74,17.44-17.74s17.44,5.91,17.44,17.74v3.67h-10.4v-3.67c0-5-3.26-7.34-7.04-7.34s-7.04,2.35-7.04,7.34v38.34c0,5,3.26,7.34,7.04,7.34s7.04-2.35,7.04-7.34v-13.66h-8.26v-9.18h18.66v22.84c0,11.83-8.97,17.74-17.44,17.74s-17.44-5.91-17.44-17.74V17.74Z"/>
      <path class="cls-1" d="M168.15.61h10.4v31.1h12.85V.61h10.4v72.61h-10.4v-32.33h-12.85v32.33h-10.4V.61Z"/>
      <path class="cls-1" d="M237.5,29.9h-5.57v-1.26c0-2.57-1.09-4.7-3.93-4.7-3.06,0-3.77,2.46-3.77,5.03,0,3,.27,4.04,3.17,5.19l4.26,1.69c4.92,1.86,5.85,4.97,5.85,10.65,0,6.56-2.4,11.42-9.61,11.42-5.41,0-9.5-3.99-9.5-9.23v-2.08h5.57v1.75c0,2.02,1.09,3.99,3.93,3.99,3.77,0,4.04-2.24,4.04-5.79,0-4.15-.49-4.81-3.22-5.9l-3.99-1.64c-4.81-1.97-6.06-5.13-6.06-10,0-5.9,3.17-10.65,9.56-10.65,5.57,0,9.29,4.48,9.29,8.79v2.73Z"/>
      <path class="cls-1" d="M241.65,18.7h16.61v5.24h-11.03v11.42h9.61v5.24h-9.61v11.42h11.03v5.57h-16.61V18.7Z"/>
      <path class="cls-1" d="M261.86,18.7h8.96c6.61,0,9.83,3.88,9.83,11.42,0,4.48-1.26,7.76-4.81,9.72l6.01,17.75h-5.9l-5.19-16.61h-3.33v16.61h-5.57V18.7ZM267.43,36.07h3.17c3.88,0,4.48-2.19,4.48-6.06s-.66-6.06-4.75-6.06h-2.9v12.13Z"/>
      <path class="cls-1" d="M285.3,18.7h5.57v38.89h-5.57V18.7Z"/>
      <path class="cls-1" d="M296.27,18.7h16.61v5.24h-11.03v11.42h9.61v5.24h-9.61v11.42h11.03v5.57h-16.61V18.7Z"/>
      <path class="cls-1" d="M334.51,29.9h-5.57v-1.26c0-2.57-1.09-4.7-3.93-4.7-3.06,0-3.77,2.46-3.77,5.03,0,3,.27,4.04,3.17,5.19l4.26,1.69c4.92,1.86,5.85,4.97,5.85,10.65,0,6.56-2.4,11.42-9.61,11.42-5.41,0-9.5-3.99-9.5-9.23v-2.08h5.57v1.75c0,2.02,1.09,3.99,3.93,3.99,3.77,0,4.04-2.24,4.04-5.79,0-4.15-.49-4.81-3.22-5.9l-3.99-1.64c-4.81-1.97-6.06-5.13-6.06-10,0-5.9,3.17-10.65,9.56-10.65,5.57,0,9.29,4.48,9.29,8.79v2.73Z"/>
    </g>
  </g>
</svg>